<?xml version="1.0" encoding="UTF-8" standalone="no"?>
<!DOCTYPE svg PUBLIC "-//W3C//DTD SVG 1.1//EN"
 "http://www.w3.org/Graphics/SVG/1.1/DTD/svg11.dtd">
<!-- Generated by graphviz version 2.40.1 (20161225.0304)
 -->
<!-- Title: e Pages: 1 -->
<svg width="1251pt" height="617pt"
 viewBox="0.00 0.00 1251.00 617.48" xmlns="http://www.w3.org/2000/svg" xmlns:xlink="http://www.w3.org/1999/xlink">
<g id="graph0" class="graph" transform="scale(1 1) rotate(0) translate(4 613.476)">
<title>e</title>
<polygon fill="#ffffff" stroke="transparent" points="-4,4 -4,-613.476 1247,-613.476 1247,4 -4,4"/>
<g id="clust1" class="cluster">
<title>cluster_::Object#gcd</title>
<polygon fill="none" stroke="#0000ff" points="8,-8 8,-601.476 1235,-601.476 1235,-8 8,-8"/>
<text text-anchor="middle" x="621.5" y="-586.276" font-family="Times,serif" font-size="14.00" fill="#000000">::Object#foo</text>
</g>
<!-- bb::Object#foo_0 -->
<g id="node1" class="node">
<title>bb::Object#foo_0</title>
<polygon fill="none" stroke="#000000" points="496.6862,-482.1803 769,-434.952 1041.3138,-482.1803 1041.0596,-558.5973 496.9404,-558.5973 496.6862,-482.1803"/>
<text text-anchor="start" x="553.774" y="-527.1015" font-family="Times,serif" font-size="14.00" fill="#000000">block[id=0]()</text>
<text text-anchor="start" x="553.774" y="-513.1015" font-family="Times,serif" font-size="14.00" fill="#000000">&lt;selfMethodTemp&gt;$3 = self : Object</text>
<text text-anchor="start" x="553.774" y="-499.1015" font-family="Times,serif" font-size="14.00" fill="#000000">a = load_arg(&lt;selfMethodTemp&gt;$3#foo, 0) : Integer</text>
<text text-anchor="start" x="553.774" y="-485.1015" font-family="Times,serif" font-size="14.00" fill="#000000">b = load_arg(&lt;selfMethodTemp&gt;$3#foo, 1) : Integer</text>
<text text-anchor="start" x="553.774" y="-471.1015" font-family="Times,serif" font-size="14.00" fill="#000000">&lt;unconditional&gt;</text>
</g>
<!-- bb::Object#foo_2 -->
<g id="node3" class="node">
<title>bb::Object#foo_2</title>
<ellipse fill="none" stroke="#000000" cx="769" cy="-343.9727" rx="264.0334" ry="55.3091"/>
<text text-anchor="start" x="590.312" y="-367.7727" font-family="Times,serif" font-size="14.00" fill="#000000">block[id=2](b, a)</text>
<text text-anchor="start" x="590.312" y="-353.7727" font-family="Times,serif" font-size="14.00" fill="#000000">outerLoops: 1</text>
<text text-anchor="start" x="590.312" y="-339.7727" font-family="Times,serif" font-size="14.00" fill="#000000">&lt;statTemp&gt;$7 = 0 : Integer(0)</text>
<text text-anchor="start" x="590.312" y="-325.7727" font-family="Times,serif" font-size="14.00" fill="#000000">&lt;whileTemp&gt;$5 = b.!=(&lt;statTemp&gt;$7) : TrueClass | FalseClass</text>
<text text-anchor="start" x="590.312" y="-311.7727" font-family="Times,serif" font-size="14.00" fill="#000000">&lt;whileTemp&gt;$5</text>
</g>
<!-- bb::Object#foo_0&#45;&gt;bb::Object#foo_2 -->
<g id="edge1" class="edge">
<title>bb::Object#foo_0&#45;&gt;bb::Object#foo_2</title>
<path fill="none" stroke="#000000" stroke-width="2" d="M769,-434.8071C769,-426.4123 769,-417.8487 769,-409.4992"/>
<polygon fill="#000000" stroke="#000000" stroke-width="2" points="772.5001,-409.4465 769,-399.4465 765.5001,-409.4466 772.5001,-409.4465"/>
</g>
<!-- bb::Object#foo_1 -->
<g id="node2" class="node">
<title>bb::Object#foo_1</title>
<polygon fill="none" stroke="#000000" points="607.5647,-121.1543 137.3874,-121.1543 16.4353,-21.1543 486.6126,-21.1543 607.5647,-121.1543"/>
<text text-anchor="start" x="73.1346" y="-80.9543" font-family="Times,serif" font-size="14.00" fill="#000000">block[id=1](&lt;returnMethodTemp&gt;$2)</text>
<text text-anchor="start" x="73.1346" y="-66.9543" font-family="Times,serif" font-size="14.00" fill="#000000">&lt;finalReturn&gt; = return &lt;returnMethodTemp&gt;$2</text>
<text text-anchor="start" x="73.1346" y="-52.9543" font-family="Times,serif" font-size="14.00" fill="#000000">&lt;unconditional&gt;</text>
</g>
<!-- bb::Object#foo_1&#45;&gt;bb::Object#foo_1 -->
<g id="edge2" class="edge">
<title>bb::Object#foo_1&#45;&gt;bb::Object#foo_1</title>
<path fill="none" stroke="#000000" stroke-width="2" d="M573.8638,-93.0684C605.1201,-89.084 625.5324,-81.7793 625.5324,-71.1543 625.5324,-55.8376 583.1131,-47.421 526.9388,-45.9043"/>
<polygon fill="#000000" stroke="#000000" stroke-width="2" points="526.7438,-42.4 516.6779,-45.7058 526.6083,-49.3987 526.7438,-42.4"/>
</g>
<!-- bb::Object#foo_4 -->
<g id="node4" class="node">
<title>bb::Object#foo_4</title>
<ellipse fill="none" stroke="#000000" cx="875" cy="-207.5635" rx="191.9107" ry="45.011"/>
<text text-anchor="start" x="747.2671" y="-224.3635" font-family="Times,serif" font-size="14.00" fill="#000000">block[id=4](b, a)</text>
<text text-anchor="start" x="747.2671" y="-210.3635" font-family="Times,serif" font-size="14.00" fill="#000000">outerLoops: 1</text>
<text text-anchor="start" x="747.2671" y="-196.3635" font-family="Times,serif" font-size="14.00" fill="#000000">&lt;ifTemp&gt;$9 = a.&gt;(b) : TrueClass | FalseClass</text>
<text text-anchor="start" x="747.2671" y="-182.3635" font-family="Times,serif" font-size="14.00" fill="#000000">&lt;ifTemp&gt;$9</text>
</g>
<!-- bb::Object#foo_2&#45;&gt;bb::Object#foo_4 -->
<g id="edge3" class="edge">
<title>bb::Object#foo_2&#45;&gt;bb::Object#foo_4</title>
<path fill="none" stroke="#000000" stroke-width="2" d="M811.5035,-289.2758C818.9732,-279.6632 826.7327,-269.6777 834.1559,-260.125"/>
<polygon fill="#000000" stroke="#000000" stroke-width="2" points="836.9262,-262.2639 840.2985,-252.2201 831.3989,-257.9687 836.9262,-262.2639"/>
</g>
<!-- bb::Object#foo_3 -->
<g id="node5" class="node">
<title>bb::Object#foo_3</title>
<ellipse fill="none" stroke="#000000" cx="373" cy="-207.5635" rx="212.0307" ry="35.2113"/>
<text text-anchor="start" x="231.0825" y="-217.3635" font-family="Times,serif" font-size="14.00" fill="#000000">block[id=3](a)</text>
<text text-anchor="start" x="231.0825" y="-203.3635" font-family="Times,serif" font-size="14.00" fill="#000000">&lt;returnMethodTemp&gt;$2 = return a : &lt;impossible&gt;</text>
<text text-anchor="start" x="231.0825" y="-189.3635" font-family="Times,serif" font-size="14.00" fill="#000000">&lt;unconditional&gt;</text>
</g>
<!-- bb::Object#foo_2&#45;&gt;bb::Object#foo_3 -->
<g id="edge4" class="edge">
<title>bb::Object#foo_2&#45;&gt;bb::Object#foo_3</title>
<polygon fill="#000000" stroke="transparent" points="632.0502,-296.269 624.2839,-293.62 616.4383,-290.9439 608.5254,-288.2448 600.557,-285.5269 592.545,-282.794 584.5013,-280.0504 576.4379,-277.3 568.3666,-274.5469 560.2994,-271.7952 552.248,-269.0489 544.2245,-266.3121 536.2407,-263.5889 528.3086,-260.8833 520.44,-258.1993 512.6468,-255.5411 504.9409,-252.9127 497.3343,-250.3181 489.8388,-247.7614 482.4663,-245.2467 475.2288,-242.778 475.2288,-242.778 482.4513,-245.2903 489.8085,-247.8495 497.2884,-250.4514 504.8792,-253.0918 512.5691,-255.7667 520.3461,-258.4719 528.1984,-261.2033 536.114,-263.9567 544.0812,-266.7281 552.0881,-269.5133 560.1227,-272.3081 568.1732,-275.1084 576.2277,-277.9102 584.2744,-280.7092 592.3013,-283.5013 600.2967,-286.2825 608.2485,-289.0485 616.145,-291.7953 623.9743,-294.5187 631.7245,-297.2145 632.0502,-296.269"/>
<polygon fill="#000000" stroke="#000000" points="476.1042,-239.3778 465.5095,-239.43 473.8244,-245.9961 476.1042,-239.3778"/>
</g>
<!-- bb::Object#foo_5 -->
<g id="node6" class="node">
<title>bb::Object#foo_5</title>
<ellipse fill="none" stroke="#000000" cx="785" cy="-71.1543" rx="141.3952" ry="55.3091"/>
<text text-anchor="start" x="692.9814" y="-94.9543" font-family="Times,serif" font-size="14.00" fill="#000000">block[id=5](b, a)</text>
<text text-anchor="start" x="692.9814" y="-80.9543" font-family="Times,serif" font-size="14.00" fill="#000000">outerLoops: 1</text>
<text text-anchor="start" x="692.9814" y="-66.9543" font-family="Times,serif" font-size="14.00" fill="#000000">&lt;statTemp&gt;$12 = a : Integer</text>
<text text-anchor="start" x="692.9814" y="-52.9543" font-family="Times,serif" font-size="14.00" fill="#000000">a = &lt;statTemp&gt;$12.&#45;(b) : Integer</text>
<text text-anchor="start" x="692.9814" y="-38.9543" font-family="Times,serif" font-size="14.00" fill="#000000">&lt;unconditional&gt;</text>
</g>
<!-- bb::Object#foo_4&#45;&gt;bb::Object#foo_5 -->
<g id="edge6" class="edge">
<title>bb::Object#foo_4&#45;&gt;bb::Object#foo_5</title>
<path fill="none" stroke="#000000" stroke-width="2" d="M845.2812,-162.52C839.1035,-153.1566 832.4897,-143.1325 825.9885,-133.2789"/>
<polygon fill="#000000" stroke="#000000" stroke-width="2" points="828.7467,-131.1039 820.3181,-124.6845 822.9039,-134.959 828.7467,-131.1039"/>
</g>
<!-- bb::Object#foo_6 -->
<g id="node7" class="node">
<title>bb::Object#foo_6</title>
<ellipse fill="none" stroke="#000000" cx="1086" cy="-71.1543" rx="141.3952" ry="55.3091"/>
<text text-anchor="start" x="993.9814" y="-94.9543" font-family="Times,serif" font-size="14.00" fill="#000000">block[id=6](b, a)</text>
<text text-anchor="start" x="993.9814" y="-80.9543" font-family="Times,serif" font-size="14.00" fill="#000000">outerLoops: 1</text>
<text text-anchor="start" x="993.9814" y="-66.9543" font-family="Times,serif" font-size="14.00" fill="#000000">&lt;statTemp&gt;$14 = b : Integer</text>
<text text-anchor="start" x="993.9814" y="-52.9543" font-family="Times,serif" font-size="14.00" fill="#000000">b = &lt;statTemp&gt;$14.&#45;(a) : Integer</text>
<text text-anchor="start" x="993.9814" y="-38.9543" font-family="Times,serif" font-size="14.00" fill="#000000">&lt;unconditional&gt;</text>
</g>
<!-- bb::Object#foo_4&#45;&gt;bb::Object#foo_6 -->
<g id="edge7" class="edge">
<title>bb::Object#foo_4&#45;&gt;bb::Object#foo_6</title>
<polygon fill="#000000" stroke="transparent" points="941.1653,-165.3838 944.1815,-163.4053 947.2286,-161.4067 950.3039,-159.3896 953.4046,-157.3558 956.5281,-155.307 959.6717,-153.245 962.8329,-151.1716 966.0088,-149.0884 969.1969,-146.9973 972.3945,-144.8999 975.5989,-142.7981 978.8074,-140.6936 982.0175,-138.5881 985.2263,-136.4833 988.4314,-134.3811 991.6299,-132.2831 994.8192,-130.1911 997.9967,-128.1069 1001.1598,-126.0323 1004.3056,-123.9688 1004.3056,-123.9688 1001.1327,-125.9904 997.9425,-128.023 994.7377,-130.065 991.5209,-132.1145 988.2949,-134.1699 985.0623,-136.2295 981.8258,-138.2916 978.5882,-140.3544 975.352,-142.4163 972.1201,-144.4755 968.895,-146.5303 965.6795,-148.5791 962.4763,-150.62 959.288,-152.6514 956.1173,-154.6716 952.9669,-156.6788 949.8395,-158.6713 946.7379,-160.6475 943.6646,-162.6057 940.6223,-164.544 941.1653,-165.3838"/>
<polygon fill="#000000" stroke="#000000" points="1006.4026,-126.7809 1012.9003,-118.4125 1002.6022,-120.9024 1006.4026,-126.7809"/>
</g>
<!-- bb::Object#foo_3&#45;&gt;bb::Object#foo_1 -->
<g id="edge5" class="edge">
<title>bb::Object#foo_3&#45;&gt;bb::Object#foo_1</title>
<path fill="none" stroke="#000000" stroke-width="2" d="M357.1322,-172.0797C351.4565,-159.3876 344.8948,-144.7143 338.5633,-130.5557"/>
<polygon fill="#000000" stroke="#000000" stroke-width="2" points="341.7249,-129.0518 334.4475,-121.3518 335.3347,-131.9094 341.7249,-129.0518"/>
</g>
<!-- bb::Object#foo_5&#45;&gt;bb::Object#foo_2 -->
<g id="edge8" class="edge">
<title>bb::Object#foo_5&#45;&gt;bb::Object#foo_2</title>
<path fill="none" stroke="#000000" stroke-width="2" d="M709.2702,-117.8153C695.0019,-130.3787 682.0468,-145.2882 674,-162.3087 656.8067,-198.6757 658.223,-215.8148 674,-252.8183 678.5875,-263.5778 685.1368,-273.678 692.6803,-282.9526"/>
<polygon fill="#000000" stroke="#000000" stroke-width="2" points="690.0477,-285.2591 699.2295,-290.5454 695.3483,-280.6871 690.0477,-285.2591"/>
</g>
<!-- bb::Object#foo_6&#45;&gt;bb::Object#foo_2 -->
<g id="edge9" class="edge">
<title>bb::Object#foo_6&#45;&gt;bb::Object#foo_2</title>
<path fill="none" stroke="#000000" stroke-width="2" d="M1098.3574,-126.205C1103.8389,-165.5776 1103.8031,-217.622 1076,-252.8183 1060.6124,-272.2977 1018.6062,-289.2786 970.4237,-303.1339"/>
<polygon fill="#000000" stroke="#000000" stroke-width="2" points="969.3912,-299.7884 960.7108,-305.8631 971.2848,-306.5274 969.3912,-299.7884"/>
</g>
</g>
</svg>
