<svg xmlns="http://www.w3.org/2000/svg" xmlns:xlink="http://www.w3.org/1999/xlink" xmlns:lucid="lucid" width="1030" height="619"><g transform="translate(-156 -691)" lucid:page-tab-id="0_0"><path d="M589.2 1180h345v60h-345z" fill="none"/><use xlink:href="#a" transform="matrix(1,0,0,1,589.2105263157895,1180) translate(165.09259259259258 35.333333333333336)"/><path d="M445 1100h115v80H445z" stroke="#000" stroke-width="2" fill-opacity="0"/><use xlink:href="#b" transform="matrix(1,0,0,1,450,1105) translate(36.98148148148148 40.333333333333336)"/><path d="M561 1140h123.97" stroke="#000" stroke-width="2" fill="none"/><path d="M561 1141h-1v-2h1zM699.97 1140l-14.26 4.64v-9.28z"/><path d="M703.2 1140l-18.5 6v-12zm-16.5 3.26l10.04-3.26-10.03-3.26z"/><path d="M704.2 1100h115v80h-115zM819.2 1100h115v80h-115zM934.2 1100h115v80h-115zM1049.2 1100h115v80h-115z" stroke="#000" stroke-width="2" fill-opacity="0"/><path d="M704.2 1180h345v60h-345z" fill="none"/><use xlink:href="#c" transform="matrix(1,0,0,1,704.2105263157895,1180) translate(165.09259259259258 35.333333333333336)"/><path d="M824.2 1180h345v60h-345z" fill="none"/><use xlink:href="#d" transform="matrix(1,0,0,1,824.2105263157895,1180) translate(165.09259259259258 35.333333333333336)"/><path d="M934.2 1180h345v60h-345z" fill="none"/><use xlink:href="#e" transform="matrix(1,0,0,1,934.2105263157896,1180) translate(165.09259259259258 35.333333333333336)"/><path d="M796.2 1109.2c12.7 0 23 13.8 23 30.8s-10.3 30.8-23 30.8h-69c-12.7 0-23-13.8-23-30.8s10.3-30.8 23-30.8z" stroke="#000" stroke-width="2" fill-opacity="0"/><use xlink:href="#f" transform="matrix(1,0,0,1,709.2105263157895,1114.2105263157894) translate(24.88888888888889 31.333333333333336)"/><path d="M911.2 1109.2c12.7 0 23 13.8 23 30.8s-10.3 30.8-23 30.8h-69c-12.7 0-23-13.8-23-30.8s10.3-30.8 23-30.8z" stroke="#000" stroke-width="2" fill-opacity="0"/><use xlink:href="#f" transform="matrix(1,0,0,1,824.2105263157895,1114.2105263157894) translate(24.88888888888889 31.333333333333336)"/><path d="M1026.2 1109.2c12.7 0 23 13.8 23 30.8s-10.3 30.8-23 30.8h-69c-12.7 0-23-13.8-23-30.8s10.3-30.8 23-30.8z" stroke="#000" stroke-width="2" fill-opacity="0"/><use xlink:href="#f" transform="matrix(1,0,0,1,939.2105263157895,1114.2105263157894) translate(24.88888888888889 31.333333333333336)"/><path d="M1141.2 1109.2c12.7 0 23 13.8 23 30.8s-10.3 30.8-23 30.8h-69c-12.7 0-23-13.8-23-30.8s10.3-30.8 23-30.8z" stroke="#000" stroke-width="2" fill-opacity="0"/><use xlink:href="#f" transform="matrix(1,0,0,1,1054.2105263157896,1114.2105263157894) translate(24.88888888888889 31.333333333333336)"/><path d="M215 1100h115v80H215zM330 1100h115v80H330z" stroke="#000" stroke-width="2" fill-opacity="0"/><path d="M307 1109.2c12.7 0 23 13.8 23 30.8s-10.3 30.8-23 30.8h-69c-12.7 0-23-13.8-23-30.8s10.3-30.8 23-30.8zM422 1109.2c12.7 0 23 13.8 23 30.8s-10.3 30.8-23 30.8h-69c-12.7 0-23-13.8-23-30.8s10.3-30.8 23-30.8zM445 769h115v80H445z" stroke="#000" stroke-width="2" fill-opacity="0"/><use xlink:href="#b" transform="matrix(1,0,0,1,450,774) translate(36.98148148148148 40.333333333333336)"/><path d="M100 849h345v60H100z" fill="none"/><use xlink:href="#a" transform="matrix(1,0,0,1,100,849) translate(165.09259259259258 35.333333333333336)"/><path d="M215 769h115v80H215zM330 769h115v80H330z" stroke="#000" stroke-width="2" fill-opacity="0"/><path d="M215 849h345v60H215z" fill="none"/><use xlink:href="#c" transform="matrix(1,0,0,1,215,849) translate(165.09259259259258 35.333333333333336)"/><path d="M307 778.2c12.7 0 23 13.8 23 30.8s-10.3 30.8-23 30.8h-69c-12.7 0-23-13.8-23-30.8s10.3-30.8 23-30.8z" stroke="#000" stroke-width="2" fill-opacity="0"/><use xlink:href="#f" transform="matrix(1,0,0,1,219.99999999999997,783.2105263157895) translate(24.88888888888889 31.333333333333336)"/><path d="M422 778.2c12.7 0 23 13.8 23 30.8s-10.3 30.8-23 30.8h-69c-12.7 0-23-13.8-23-30.8s10.3-30.8 23-30.8z" stroke="#000" stroke-width="2" fill-opacity="0"/><use xlink:href="#f" transform="matrix(1,0,0,1,335,783.2105263157895) translate(24.88888888888889 31.333333333333336)"/><path d="M200 1040h389.2v220H200z" stroke="#000" stroke-width="2" fill-opacity="0"/><path d="M341.3 929h92.4v42h-92.4z" fill-opacity="0"/><use xlink:href="#g" transform="matrix(1,0,0,1,346.31481481481484,934) translate(0 21.333333333333336)"/><path d="M445 769h115v80H445z" stroke="#000" stroke-width="2" fill-opacity="0"/><use xlink:href="#b" transform="matrix(1,0,0,1,450,774) translate(36.98148148148148 40.333333333333336)"/><path d="M561 809h40v80H174v-80h21.76" stroke="#000" stroke-width="2" fill="none"/><path d="M561 810h-1v-2h1zM210.76 809l-14.26 4.64v-9.28z"/><path d="M214 809l-18.5 6v-12zm-16.5 3.26l10.03-3.26-10.03-3.26z"/><path d="M215 769h115v80H215zM330 769h115v80H330z" stroke="#000" stroke-width="2" fill-opacity="0"/><path d="M307 778.2c12.7 0 23 13.8 23 30.8s-10.3 30.8-23 30.8h-69c-12.7 0-23-13.8-23-30.8s10.3-30.8 23-30.8z" stroke="#000" stroke-width="2" fill-opacity="0"/><use xlink:href="#f" transform="matrix(1,0,0,1,219.99999999999997,783.2105263157895) translate(24.88888888888889 31.333333333333336)"/><path d="M422 778.2c12.7 0 23 13.8 23 30.8s-10.3 30.8-23 30.8h-69c-12.7 0-23-13.8-23-30.8s10.3-30.8 23-30.8z" stroke="#000" stroke-width="2" fill-opacity="0"/><use xlink:href="#f" transform="matrix(1,0,0,1,335,783.2105263157895) translate(24.88888888888889 31.333333333333336)"/><path d="M200 709h389.2v220H200z" stroke="#000" stroke-width="2" fill-opacity="0"/><path d="M341.3 1260h92.4v42h-92.4z" fill-opacity="0"/><use xlink:href="#g" transform="matrix(1,0,0,1,346.31481481481484,1265) translate(0 21.333333333333336)"/><defs><path fill="#fff" d="M101-251c68 0 85 55 85 127S166 4 100 4C33 4 14-52 14-124c0-73 17-127 87-127zm-1 229c47 0 54-49 54-102s-4-102-53-102c-51 0-55 48-55 102 0 53 5 102 54 102" id="h"/><use transform="matrix(0.07407407407407408,0,0,0.07407407407407408,0,0)" xlink:href="#h" id="a"/><path fill="#fff" d="M115-194c55 1 70 41 70 98S169 2 115 4C84 4 66-9 55-30l1 105H24l-1-265h31l2 30c10-21 28-34 59-34zm-8 174c40 0 45-34 45-75s-6-73-45-74c-42 0-51 32-51 76 0 43 10 73 51 73" id="i"/><path fill="#fff" d="M59-47c-2 24 18 29 38 22v24C64 9 27 4 27-40v-127H5v-23h24l9-43h21v43h35v23H59v120" id="j"/><path fill="#fff" d="M114-163C36-179 61-72 57 0H25l-1-190h30c1 12-1 29 2 39 6-27 23-49 58-41v29" id="k"/><g id="b"><use transform="matrix(0.07407407407407408,0,0,0.07407407407407408,0,0)" xlink:href="#i"/><use transform="matrix(0.07407407407407408,0,0,0.07407407407407408,14.814814814814817,0)" xlink:href="#j"/><use transform="matrix(0.07407407407407408,0,0,0.07407407407407408,22.222222222222225,0)" xlink:href="#k"/></g><path fill="#fff" d="M27 0v-27h64v-190l-56 39v-29l58-41h29v221h61V0H27" id="l"/><use transform="matrix(0.07407407407407408,0,0,0.07407407407407408,0,0)" xlink:href="#l" id="c"/><path fill="#fff" d="M101-251c82-7 93 87 43 132L82-64C71-53 59-42 53-27h129V0H18c2-99 128-94 128-182 0-28-16-43-45-43s-46 15-49 41l-32-3c6-41 34-60 81-64" id="m"/><use transform="matrix(0.07407407407407408,0,0,0.07407407407407408,0,0)" xlink:href="#m" id="d"/><path fill="#fff" d="M126-127c33 6 58 20 58 59 0 88-139 92-164 29-3-8-5-16-6-25l32-3c6 27 21 44 54 44 32 0 52-15 52-46 0-38-36-46-79-43v-28c39 1 72-4 72-42 0-27-17-43-46-43-28 0-47 15-49 41l-32-3c6-42 35-63 81-64 48-1 79 21 79 65 0 36-21 52-52 59" id="n"/><use transform="matrix(0.07407407407407408,0,0,0.07407407407407408,0,0)" xlink:href="#n" id="e"/><path fill="#fff" d="M30-248c118-7 216 8 213 122C240-48 200 0 122 0H30v-248zM63-27c89 8 146-16 146-99s-60-101-146-95v194" id="o"/><path fill="#fff" d="M141-36C126-15 110 5 73 4 37 3 15-17 15-53c-1-64 63-63 125-63 3-35-9-54-41-54-24 1-41 7-42 31l-33-3c5-37 33-52 76-52 45 0 72 20 72 64v82c-1 20 7 32 28 27v20c-31 9-61-2-59-35zM48-53c0 20 12 33 32 33 41-3 63-29 60-74-43 2-92-5-92 41" id="p"/><g id="f"><use transform="matrix(0.07407407407407408,0,0,0.07407407407407408,0,0)" xlink:href="#o"/><use transform="matrix(0.07407407407407408,0,0,0.07407407407407408,19.185185185185187,0)" xlink:href="#p"/><use transform="matrix(0.07407407407407408,0,0,0.07407407407407408,34,0)" xlink:href="#j"/><use transform="matrix(0.07407407407407408,0,0,0.07407407407407408,41.407407407407405,0)" xlink:href="#p"/></g><path fill="#fff" d="M109-170H84l-4-78h32zm-65 0H19l-4-78h33" id="q"/><path fill="#fff" d="M205 0l-28-72H64L36 0H1l101-248h38L239 0h-34zm-38-99l-47-123c-12 45-31 82-46 123h93" id="r"/><path fill="#fff" d="M179-190L93 31C79 59 56 82 12 73V49c39 6 53-20 64-50L1-190h34L92-34l54-156h33" id="s"/><g id="g"><use transform="matrix(0.07407407407407408,0,0,0.07407407407407408,0,0)" xlink:href="#q"/><use transform="matrix(0.07407407407407408,0,0,0.07407407407407408,9.407407407407408,0)" xlink:href="#r"/><use transform="matrix(0.07407407407407408,0,0,0.07407407407407408,27.18518518518519,0)" xlink:href="#k"/><use transform="matrix(0.07407407407407408,0,0,0.07407407407407408,36,0)" xlink:href="#k"/><use transform="matrix(0.07407407407407408,0,0,0.07407407407407408,44.814814814814824,0)" xlink:href="#p"/><use transform="matrix(0.07407407407407408,0,0,0.07407407407407408,59.62962962962964,0)" xlink:href="#s"/><use transform="matrix(0.07407407407407408,0,0,0.07407407407407408,72.96296296296296,0)" xlink:href="#q"/></g></defs></g></svg>