<svg xmlns="http://www.w3.org/2000/svg" xmlns:xlink="http://www.w3.org/1999/xlink" xmlns:lucid="lucid" width="627" height="319"><g transform="translate(-224 -81)" lucid:page-tab-id="0_0"><path d="M680 350h240v60H680z" fill="none"/><use xlink:href="#a" transform="matrix(1,0,0,1,680,350) translate(112.5925925925926 35.333333333333336)"/><path d="M440 350h240v60H440z" fill="none"/><use xlink:href="#b" transform="matrix(1,0,0,1,440,350) translate(112.5925925925926 35.333333333333336)"/><path d="M520 350h240v60H520z" fill="none"/><use xlink:href="#c" transform="matrix(1,0,0,1,520,350) translate(112.5925925925926 35.333333333333336)"/><path d="M600 350h240v60H600z" fill="none"/><use xlink:href="#d" transform="matrix(1,0,0,1,600,350) translate(112.5925925925926 35.333333333333336)"/><path d="M260 309h120v42H260z" stroke="#000" stroke-width="2" fill-opacity="0"/><use xlink:href="#e" transform="matrix(1,0,0,1,265,314) translate(39.48148148148148 21.333333333333336)"/><path d="M381 330h119.76" stroke="#000" stroke-width="2" fill="none"/><path d="M381 331h-1v-2h1zM515.76 330l-14.26 4.64v-9.28z"/><path d="M519 330l-18.5 6v-12zm-16.5 3.26l10.03-3.26-10.03-3.26z"/><path d="M520 300h80v60h-80z" stroke="#000" stroke-width="2" fill-opacity="0"/><use xlink:href="#e" transform="matrix(1,0,0,1,525,305) translate(19.48148148148148 30.333333333333336)"/><path d="M600 300h80v60h-80z" stroke="#000" stroke-width="2" fill-opacity="0"/><use xlink:href="#e" transform="matrix(1,0,0,1,605,305) translate(19.48148148148148 30.333333333333336)"/><path d="M680 300h80v60h-80z" stroke="#000" stroke-width="2" fill-opacity="0"/><use xlink:href="#e" transform="matrix(1,0,0,1,685,305) translate(19.48148148148148 30.333333333333336)"/><path d="M760 300h80v60h-80z" stroke="#000" stroke-width="2" fill-opacity="0"/><use xlink:href="#e" transform="matrix(1,0,0,1,765,305) translate(19.48148148148148 30.333333333333336)"/><path d="M560 299l-.06-2.8-.17-2.68-.26-2.55-.35-2.44-.46-2.37-.54-2.3-.63-2.23-.7-2.2-.82-2.16-.9-2.14-1-2.13-1.1-2.14-1.26-2.16-1.4-2.2-1.54-2.23-1.76-2.3-2-2.42-2.28-2.54-2.68-2.73-3.22-3-4-3.46-5.42-4.27-9.56-6.9-24.27-17-5.4-4.28-4-3.45-3.22-3.02-2.68-2.73-2.3-2.55-2-2.4-1.75-2.3-1.55-2.25-1.4-2.2-1.24-2.15-1.12-2.14-1-2.13-.9-2.15-.8-2.16-.52-1.6" stroke="#000" stroke-width="2" fill="none"/><path d="M561.13 300h-2.02l-.1-.88 2-.24zM468.2 180.8l-9.17 1.35 2.5-14.8z"/><path d="M469.7 181.58l-11.88 1.76 3.23-19.18zm-9.45-.62l6.45-.96-4.7-9.44z"/><path d="M498.95 100c13.95 0 25.26 14.14 25.26 31.58 0 17.44-11.3 31.58-25.25 31.58h-75.8c-13.94 0-25.26-14.14-25.26-31.58 0-17.44 11.3-31.58 25.26-31.58z" stroke="#000" stroke-width="2" fill-opacity="0"/><use xlink:href="#f" transform="matrix(1,0,0,1,402.8947368421053,104.99999999999999) translate(30.38888888888889 32.333333333333336)"/><path d="M800 299v-.57l-.05-.57-.06-.57-.1-.57-.1-.57-.13-.57-.16-.58-.18-.6-.22-.58-.26-.6-.3-.63-.33-.63-.37-.66-.44-.68-.5-.7-.57-.76-.65-.8-.76-.82-.86-.9-1-.94-1.2-1-1.4-1.12-1.65-1.2-1.98-1.33-2.43-1.46-3-1.66-3.8-1.87-4.82-2.15-6.36-2.5-8.65-3-12.26-3.7-18.5-4.7-31.04-6.54-69.22-11.43-219.34-32.38-31.04-6.52-18.5-4.72-12.27-3.7-8.66-3-6.36-2.5-4.84-2.14-3.77-1.88-3-1.65-2.43-1.47-2-1.32-1.65-1.2-.5-.4" stroke="#000" stroke-width="2" fill="none"/><path d="M801.64 300h-2.25l-.3-.54 1.8-.92zM316.2 176.7l-7.9 4.82-3.46-14.6z"/><path d="M317.9 176.84l-10.26 6.25-4.48-18.94zm-8.95 3.1l5.57-3.38-8-6.87z"/><path d="M341.05 100c13.96 0 25.27 14.14 25.27 31.58 0 17.44-11.3 31.58-25.27 31.58h-75.8c-13.94 0-25.25-14.14-25.25-31.58 0-17.44 11.3-31.58 25.26-31.58z" stroke="#000" stroke-width="2" fill-opacity="0"/><use xlink:href="#f" transform="matrix(1,0,0,1,244.99999999999997,104.99999999999999) translate(30.38888888888889 32.333333333333336)"/><path d="M640 299l-.25-12.6-.63-10.1-.9-8.54-1.1-7.6-1.4-7.2-1.78-7.62-3.5-12.3-5.43-18.76-1.78-7.62-1.38-7.2-1.12-7.6-.9-8.53-.27-4.5" stroke="#000" stroke-width="2" fill="none"/><path d="M641.03 300h-2l-.03-.98 2-.05zM624.16 177.96l-9.27.3 4.15-14.4z"/><path d="M625.57 178.9l-12.02.4 5.4-18.68zm-9.33-1.68l6.5-.22-3.58-9.9z"/><path d="M656.84 100c13.95 0 25.27 13.35 25.27 29.8 0 16.47-11.3 29.82-25.26 29.82h-75.8c-13.94 0-25.25-13.35-25.25-29.8 0-16.47 11.3-29.82 25.25-29.82z" stroke="#000" stroke-width="2" fill-opacity="0"/><use xlink:href="#f" transform="matrix(1,0,0,1,560.7894736842105,105.00000000000001) translate(30.38888888888889 30.333333333333336)"/><path d="M720 299l.1-4.8.27-4.38.43-4.05.56-3.77.67-3.56.8-3.38.9-3.24 1.02-3.14 1.14-3.07 1.27-3.03 1.43-3.05 1.63-3.1 1.87-3.25 2.22-3.5 2.77-3.97 3.9-5.15 18.75-23.1 2.77-3.97 2.22-3.5 1.87-3.23 1.64-3.1 1.43-3.06 1.28-3.05 1.14-3.07 1-3.14.92-3.24.8-3.38.45-2.42" stroke="#000" stroke-width="2" fill="none"/><path d="M721 299.07l-.07.93h-2l.07-1.07zM779.95 182l-9.24-.8 5.86-13.82z"/><path d="M781.23 183.1l-11.97-1.03 7.58-17.9zm-9.06-2.78l6.5.56-2.4-10.27z"/><path d="M814.74 100c13.95 0 25.26 14.14 25.26 31.58 0 17.44-11.3 31.58-25.26 31.58h-75.8c-13.95 0-25.26-14.14-25.26-31.58 0-17.44 11.3-31.58 25.27-31.58z" stroke="#000" stroke-width="2" fill-opacity="0"/><use xlink:href="#f" transform="matrix(1,0,0,1,718.6842105263158,104.99999999999999) translate(30.38888888888889 32.333333333333336)"/><path d="M273.95 351h92.37v42h-92.37z" fill-opacity="0"/><use xlink:href="#g" transform="matrix(1,0,0,1,278.9454191033138,356) translate(0 21.333333333333336)"/><defs><path fill="#fff" d="M126-127c33 6 58 20 58 59 0 88-139 92-164 29-3-8-5-16-6-25l32-3c6 27 21 44 54 44 32 0 52-15 52-46 0-38-36-46-79-43v-28c39 1 72-4 72-42 0-27-17-43-46-43-28 0-47 15-49 41l-32-3c6-42 35-63 81-64 48-1 79 21 79 65 0 36-21 52-52 59" id="h"/><use transform="matrix(0.07407407407407408,0,0,0.07407407407407408,0,0)" xlink:href="#h" id="a"/><path fill="#fff" d="M101-251c68 0 85 55 85 127S166 4 100 4C33 4 14-52 14-124c0-73 17-127 87-127zm-1 229c47 0 54-49 54-102s-4-102-53-102c-51 0-55 48-55 102 0 53 5 102 54 102" id="i"/><use transform="matrix(0.07407407407407408,0,0,0.07407407407407408,0,0)" xlink:href="#i" id="b"/><path fill="#fff" d="M27 0v-27h64v-190l-56 39v-29l58-41h29v221h61V0H27" id="j"/><use transform="matrix(0.07407407407407408,0,0,0.07407407407407408,0,0)" xlink:href="#j" id="c"/><path fill="#fff" d="M101-251c82-7 93 87 43 132L82-64C71-53 59-42 53-27h129V0H18c2-99 128-94 128-182 0-28-16-43-45-43s-46 15-49 41l-32-3c6-41 34-60 81-64" id="k"/><use transform="matrix(0.07407407407407408,0,0,0.07407407407407408,0,0)" xlink:href="#k" id="d"/><path fill="#fff" d="M115-194c55 1 70 41 70 98S169 2 115 4C84 4 66-9 55-30l1 105H24l-1-265h31l2 30c10-21 28-34 59-34zm-8 174c40 0 45-34 45-75s-6-73-45-74c-42 0-51 32-51 76 0 43 10 73 51 73" id="l"/><path fill="#fff" d="M59-47c-2 24 18 29 38 22v24C64 9 27 4 27-40v-127H5v-23h24l9-43h21v43h35v23H59v120" id="m"/><path fill="#fff" d="M114-163C36-179 61-72 57 0H25l-1-190h30c1 12-1 29 2 39 6-27 23-49 58-41v29" id="n"/><g id="e"><use transform="matrix(0.07407407407407408,0,0,0.07407407407407408,0,0)" xlink:href="#l"/><use transform="matrix(0.07407407407407408,0,0,0.07407407407407408,14.814814814814817,0)" xlink:href="#m"/><use transform="matrix(0.07407407407407408,0,0,0.07407407407407408,22.222222222222225,0)" xlink:href="#n"/></g><path fill="#fff" d="M30-248c118-7 216 8 213 122C240-48 200 0 122 0H30v-248zM63-27c89 8 146-16 146-99s-60-101-146-95v194" id="o"/><path fill="#fff" d="M141-36C126-15 110 5 73 4 37 3 15-17 15-53c-1-64 63-63 125-63 3-35-9-54-41-54-24 1-41 7-42 31l-33-3c5-37 33-52 76-52 45 0 72 20 72 64v82c-1 20 7 32 28 27v20c-31 9-61-2-59-35zM48-53c0 20 12 33 32 33 41-3 63-29 60-74-43 2-92-5-92 41" id="p"/><g id="f"><use transform="matrix(0.07407407407407408,0,0,0.07407407407407408,0,0)" xlink:href="#o"/><use transform="matrix(0.07407407407407408,0,0,0.07407407407407408,19.185185185185187,0)" xlink:href="#p"/><use transform="matrix(0.07407407407407408,0,0,0.07407407407407408,34,0)" xlink:href="#m"/><use transform="matrix(0.07407407407407408,0,0,0.07407407407407408,41.407407407407405,0)" xlink:href="#p"/></g><path fill="#fff" d="M109-170H84l-4-78h32zm-65 0H19l-4-78h33" id="q"/><path fill="#fff" d="M205 0l-28-72H64L36 0H1l101-248h38L239 0h-34zm-38-99l-47-123c-12 45-31 82-46 123h93" id="r"/><path fill="#fff" d="M179-190L93 31C79 59 56 82 12 73V49c39 6 53-20 64-50L1-190h34L92-34l54-156h33" id="s"/><g id="g"><use transform="matrix(0.07407407407407408,0,0,0.07407407407407408,0,0)" xlink:href="#q"/><use transform="matrix(0.07407407407407408,0,0,0.07407407407407408,9.407407407407408,0)" xlink:href="#r"/><use transform="matrix(0.07407407407407408,0,0,0.07407407407407408,27.18518518518519,0)" xlink:href="#n"/><use transform="matrix(0.07407407407407408,0,0,0.07407407407407408,36,0)" xlink:href="#n"/><use transform="matrix(0.07407407407407408,0,0,0.07407407407407408,44.814814814814824,0)" xlink:href="#p"/><use transform="matrix(0.07407407407407408,0,0,0.07407407407407408,59.62962962962964,0)" xlink:href="#s"/><use transform="matrix(0.07407407407407408,0,0,0.07407407407407408,72.96296296296296,0)" xlink:href="#q"/></g></defs></g></svg>