<svg xmlns="http://www.w3.org/2000/svg" xmlns:xlink="http://www.w3.org/1999/xlink" xmlns:lucid="lucid" width="3011" height="955"><g transform="translate(0 -41)" lucid:page-tab-id="0eqBfotfVGlV"><path d="M211.68 606.82c22.1 0 40 35.82 40 80s-17.9 80-40 80h-120c-22.1 0-40-35.82-40-80s17.9-80 40-80z" stroke="#666" stroke-width="2" fill="#a3d977"/><use xlink:href="#a" transform="matrix(1,0,0,1,51.67592688390317,606.8212043087233) translate(21.64999999999999 83.60000000000001)"/><use xlink:href="#b" transform="matrix(1,0,0,1,51.67592688390317,606.8212043087233) translate(58.55 83.60000000000001)"/><use xlink:href="#c" transform="matrix(1,0,0,1,51.67592688390317,606.8212043087233) translate(80.45 83.60000000000001)"/><use xlink:href="#d" transform="matrix(1,0,0,1,51.67592688390317,606.8212043087233) translate(121.4 83.60000000000001)"/><path d="M147.04 56.68c0-2.77 2.24-5 5-5h1489.4c2.77 0 5 2.23 5 5v55.14c0 2.76-2.23 5-5 5H152.05c-2.76 0-5-2.24-5-5z" fill="none"/><use xlink:href="#e" transform="matrix(1,0,0,1,147.04276471776063,51.67592688390317) translate(0 40.111111111111114)"/><use xlink:href="#f" transform="matrix(1,0,0,1,147.04276471776063,51.67592688390317) translate(157.7283950617284 40.111111111111114)"/><use xlink:href="#g" transform="matrix(1,0,0,1,147.04276471776063,51.67592688390317) translate(336.9876543209877 40.111111111111114)"/><use xlink:href="#h" transform="matrix(1,0,0,1,147.04276471776063,51.67592688390317) translate(421.72839506172846 40.111111111111114)"/><path d="M145.86 116.82h2840" stroke="#999" stroke-width="2" fill="none"/><path d="M1794.76 56.68c0-2.77 2.24-5 5-5h1181.1c2.77 0 5 2.23 5 5v55.14c0 2.76-2.23 5-5 5h-1181.1c-2.76 0-5-2.24-5-5z" fill="none"/><use xlink:href="#i" transform="matrix(1,0,0,1,1794.7579121570348,51.675926883903166) translate(778.0493827160535 37.4444444444444)"/><use xlink:href="#j" transform="matrix(1,0,0,1,1794.7579121570348,51.675926883903166) translate(848.1728395061763 37.4444444444444)"/><use xlink:href="#k" transform="matrix(1,0,0,1,1794.7579121570348,51.675926883903166) translate(966.6296296296318 37.4444444444444)"/><use xlink:href="#l" transform="matrix(1,0,0,1,1794.7579121570348,51.675926883903166) translate(990.888888888891 37.4444444444444)"/><use xlink:href="#m" transform="matrix(1,0,0,1,1794.7579121570348,51.675926883903166) translate(1105.580246913581 37.4444444444444)"/><use xlink:href="#n" transform="matrix(1,0,0,1,1794.7579121570348,51.675926883903166) translate(1142.6172839506178 37.4444444444444)"/><path d="M391.68 196.82v-35c0-2.76 2.23-5 5-5h950c2.76 0 5 2.24 5 5v35" fill="#fff"/><path d="M396.68 196.82c-2.77 0-5-2.24-5-5v-30c0-2.76 2.23-5 5-5h950c2.76 0 5 2.24 5 5v30c0 2.76-2.24 5-5 5z" fill="none"/><path d="M502.23 156.82H607.8m52.76 0h105.56m52.78 0h105.55m52.78 0h105.56m52.76 0h105.56m52.78 0h52.78l2.95.97 1.8 2.44.25 1.58v30l-.97 2.95-2.44 1.8-1.58.25h-52.78m-52.78 0h-105.56m-52.77 0H977.22m-52.78 0H818.9m-52.78 0H660.56m-52.77 0H502.22m-52.78 0h-52.77l-2.96-.96-1.8-2.46-.24-1.58v-30l.96-2.95 2.46-1.8 1.58-.25h52.77" stroke="#666" stroke-width="5" fill="none"/><path d="M391.68 196.82v785c0 2.76 2.23 5 5 5h950c2.76 0 5-2.24 5-5v-785" fill="none"/><path d="M391.68 196.82v52.33m0 52.34v104.65m0 52.34v104.65m0 52.34v104.65m0 52.34v104.65m0 52.34v52.32l.96 2.95 2.46 1.8 1.58.25h52.77m52.78 0H607.8m52.76 0h105.56m52.78 0h105.55m52.78 0h105.56m52.76 0h105.56m52.78 0h52.78l2.95-.96 1.8-2.46.25-1.58V929.5m0-52.35V772.5m0-52.35V615.5m0-52.35V458.5m0-52.35V301.5m0-52.35v-52.33" stroke="#666" stroke-width="5" fill="none"/><path d="M391.68 196.82h960" fill="none"/><path d="M391.68 196.82H445m53.34 0H605m53.34 0H765m53.34 0H925m53.34 0H1085m53.34 0H1245m53.34 0h53.34" stroke="#666" stroke-width="5" fill="none"/><use xlink:href="#o" transform="matrix(1,0,0,1,391.675926883903,156.82120430872328) translate(456.55 23.6)"/><path d="M252.68 686.82h104c2.76 0 5-2.24 5-5v-350c0-2.76 2.23-5 5-5h85.76" stroke="#999" stroke-width="2" fill="none"/><path d="M252.68 687.82h-1.04l.04-1v-1h1zM467.44 326.82l-14.27 4.64v-9.27z" fill="#999"/><path d="M470.68 326.82l-18.5 6v-12zm-16.5 3.26l10.02-3.26-10.03-3.26z" fill="#999"/><path d="M252.68 686.82h104c2.76 0 5-2.24 5-5v-110c0-2.76 2.23-5 5-5h85.76" stroke="#999" stroke-width="2" fill="none"/><path d="M252.68 687.82h-1.04l.04-1v-1h1zM467.44 566.82l-14.27 4.64v-9.27z" fill="#999"/><path d="M470.68 566.82l-18.5 6v-12zm-16.5 3.26l10.02-3.26-10.03-3.26z" fill="#999"/><path d="M252.62 688.76h104.03c2.76 0 5 2.24 5 5v108.06c0 2.76 2.23 5 5 5h85.8" stroke="#999" stroke-width="2" fill="none"/><path d="M252.62 689.76h-1.04l.07-2h.97zM467.44 806.82l-14.27 4.64v-9.27z" fill="#999"/><path d="M470.68 806.82l-18.5 6v-12zm-16.5 3.26l10.02-3.26-10.03-3.26z" fill="#999"/><path d="M471.68 751.82c0-2.76 2.23-5 5-5h150c2.76 0 5 2.24 5 5v110c0 2.76-2.24 5-5 5h-150c-2.77 0-5-2.24-5-5z" stroke="#666" stroke-width="2" fill="#fff"/><use xlink:href="#p" transform="matrix(1,0,0,1,476.67592688390323,751.8212043087233) translate(47.525 58.6)"/><path d="M632.68 326.82h154.9" stroke="#7ab648" stroke-width="5" fill="none"/><path d="M632.68 329.32h-1v-5h1zM802.6 326.82l-14.28 4.64v-9.27z" fill="#7ab648"/><path d="M810.68 326.82l-24.86 8.08v-16.16zm-19.86 1.2l3.68-1.2-3.68-1.2z" fill="#7ab648"/><use xlink:href="#q" transform="matrix(1,0,0,1,691.2037046616811,298.82120430872317) translate(0.004999999999999005 16)"/><path d="M811.68 271.82c0-2.76 2.23-5 5-5h150c2.76 0 5 2.24 5 5v110c0 2.76-2.24 5-5 5h-150c-2.77 0-5-2.24-5-5z" stroke="#666" stroke-width="2" fill="#fff"/><use xlink:href="#r" transform="matrix(1,0,0,1,816.6759268839032,271.82120430872317) translate(40.074999999999996 58.6)"/><path d="M215.68 216.82c8.83 0 16 26.86 16 60s-7.17 60-16 60h-128c-8.84 0-16-26.86-16-60s7.16-60 16-60z" stroke="#666" stroke-width="2" fill="#fff"/><path d="M215.68 336.82c-8.84 0-16-26.86-16-60s7.16-60 16-60" stroke="#666" stroke-width="2" fill="none"/><use xlink:href="#s" transform="matrix(1,0,0,1,76.67592688390317,221.82120430872317) translate(17.074999999999996 58.6)"/><use xlink:href="#t" transform="matrix(1,0,0,1,76.67592688390317,221.82120430872317) translate(62.975 58.6)"/><path d="M232.68 276.82h35c2.76 0 5-2.24 5-5v-41c0-2.76 2.24-5 5-5h269c2.76 0 5 2.24 5 5v16.77" stroke="#999" stroke-width="2" fill="none"/><path d="M232.68 277.82h-1.04l.04-1-.04-1h1.04z" fill="#999"/><path d="M551.68 262.6l-4.64-14.28h9.27z" fill="#fff"/><path d="M551.68 265.82l-6.02-18.5h12.03zm-3.26-16.5l3.26 10.03 3.25-10.03z" fill="#999"/><path d="M232.68 276.82h314c2.76 0 5 2.24 5 5V487.6" stroke="#999" stroke-width="2" fill="none"/><path d="M232.68 277.82h-1.04l.04-1-.04-1h1.04z" fill="#999"/><path d="M551.68 502.6l-4.64-14.28h9.27z" fill="#fff"/><path d="M551.68 505.82l-6.02-18.5h12.03zm-3.26-16.5l3.26 10.03 3.25-10.03z" fill="#999"/><path d="M232.68 276.82h35c2.76 0 5 2.24 5 5v621c0 2.76 2.24 5 5 5h269c2.76 0 5-2.24 5-5v-16.76" stroke="#999" stroke-width="2" fill="none"/><path d="M232.68 277.82h-1.04l.04-1-.04-1h1.04z" fill="#999"/><path d="M556.3 885.32h-9.26l4.64-14.26z" fill="#fff"/><path d="M557.7 886.32h-12.04l6.02-18.5zm-9.28-2h6.5l-3.24-10.03z" fill="#999"/><path d="M471.68 511.82c0-2.76 2.23-5 5-5h150c2.76 0 5 2.24 5 5v110c0 2.76-2.24 5-5 5h-150c-2.77 0-5-2.24-5-5z" stroke="#666" stroke-width="2" fill="#fff"/><use xlink:href="#p" transform="matrix(1,0,0,1,476.67592688390323,511.82120430872305) translate(47.525 58.6)"/><path d="M471.68 271.82c0-2.76 2.23-5 5-5h150c2.76 0 5 2.24 5 5v110c0 2.76-2.24 5-5 5h-150c-2.77 0-5-2.24-5-5z" stroke="#666" stroke-width="2" fill="#fff"/><use xlink:href="#p" transform="matrix(1,0,0,1,476.67592688390323,271.82120430872317) translate(47.525 58.6)"/><path d="M972.68 326.82h153.9" stroke="#3aa6dd" stroke-width="5" fill="none"/><path d="M972.68 329.32h-1v-5h1zM1141.58 326.82l-14.26 4.64v-9.27z" fill="#3aa6dd"/><path d="M1149.67 326.82l-24.85 8.08v-16.16zm-19.85 1.2l3.67-1.2-3.68-1.2z" fill="#3aa6dd"/><use xlink:href="#u" transform="matrix(1,0,0,1,1001.8148157727921,298.8212043087231) translate(0.005000000000002558 16)"/><path d="M1150.68 271.82c0-2.76 2.23-5 5-5h150c2.76 0 5 2.24 5 5v110c0 2.76-2.24 5-5 5h-150c-2.77 0-5-2.24-5-5z" stroke="#666" stroke-width="2" fill="#fff"/><use xlink:href="#v" transform="matrix(1,0,0,1,1155.675926883903,271.82120430872317) translate(57.05 58.6)"/><path d="M632.68 566.82h154.9" stroke="#7ab648" stroke-width="5" fill="none"/><path d="M802.58 566.82l-14.26 4.64v-9.27z" fill="#7ab648"/><path d="M810.67 566.82l-24.85 8.08v-16.16zm-19.85 1.2l3.67-1.2-3.68-1.2z" fill="#7ab648"/><use xlink:href="#q" transform="matrix(1,0,0,1,691.2037046616811,538.8212043087233) translate(0.004999999999999005 16)"/><path d="M811.68 511.82c0-2.76 2.23-5 5-5h150c2.76 0 5 2.24 5 5v110c0 2.76-2.24 5-5 5h-150c-2.77 0-5-2.24-5-5z" stroke="#666" stroke-width="2" fill="#fff"/><use xlink:href="#r" transform="matrix(1,0,0,1,816.6759268839032,511.82120430872305) translate(40.074999999999996 58.6)"/><path d="M972.68 566.82h153.9" stroke="#3aa6dd" stroke-width="5" fill="none"/><path d="M972.68 569.32h-1v-5h1zM1141.6 566.82l-14.28 4.64v-9.27z" fill="#3aa6dd"/><path d="M1149.68 566.82l-24.86 8.08v-16.16zm-19.86 1.2l3.68-1.2-3.68-1.2z" fill="#3aa6dd"/><use xlink:href="#u" transform="matrix(1,0,0,1,1001.8148157727921,538.821204308723) translate(0.005000000000002558 16)"/><path d="M1150.68 511.82c0-2.76 2.23-5 5-5h150c2.76 0 5 2.24 5 5v110c0 2.76-2.24 5-5 5h-150c-2.77 0-5-2.24-5-5z" stroke="#666" stroke-width="2" fill="#fff"/><use xlink:href="#v" transform="matrix(1,0,0,1,1155.675926883903,511.82120430872305) translate(57.05 58.6)"/><path d="M631.68 806.82h154.9" stroke="#7ab648" stroke-width="5" fill="none"/><path d="M801.6 806.82l-14.28 4.64v-9.27z" fill="#7ab648"/><path d="M809.68 806.82l-24.86 8.08v-16.16zm-19.86 1.2l3.68-1.2-3.68-1.2z" fill="#7ab648"/><use xlink:href="#q" transform="matrix(1,0,0,1,690.2037046616808,778.8212043087233) translate(0.004999999999999005 16)"/><path d="M810.68 751.82c0-2.76 2.23-5 5-5h150c2.76 0 5 2.24 5 5v110c0 2.76-2.24 5-5 5h-150c-2.77 0-5-2.24-5-5z" stroke="#666" stroke-width="2" fill="#fff"/><use xlink:href="#r" transform="matrix(1,0,0,1,815.675926883903,751.8212043087233) translate(40.074999999999996 58.6)"/><path d="M971.68 806.82h153.9" stroke="#3aa6dd" stroke-width="5" fill="none"/><path d="M971.68 809.32h-1v-5h1zM1140.6 806.82l-14.28 4.64v-9.27z" fill="#3aa6dd"/><path d="M1148.68 806.82l-24.86 8.08v-16.16zm-19.86 1.2l3.68-1.2-3.68-1.2z" fill="#3aa6dd"/><use xlink:href="#u" transform="matrix(1,0,0,1,1000.8148157727921,778.8212043087233) translate(0.005000000000002558 16)"/><path d="M1149.68 751.82c0-2.76 2.23-5 5-5h150c2.76 0 5 2.24 5 5v110c0 2.76-2.24 5-5 5h-150c-2.77 0-5-2.24-5-5z" stroke="#666" stroke-width="2" fill="#fff"/><use xlink:href="#v" transform="matrix(1,0,0,1,1154.6759268839032,751.8212043087233) translate(57.05 58.6)"/><path d="M1311.68 566.82h155.9" stroke="#3aa6dd" stroke-width="5" fill="none"/><path d="M1311.68 569.32h-1v-5h1zM1482.6 566.82l-14.28 4.64v-9.27z" fill="#3aa6dd"/><path d="M1490.68 566.82l-24.86 8.08v-16.16zm-19.86 1.2l3.68-1.2-3.68-1.2z" fill="#3aa6dd"/><path d="M1491.68 511.82c0-2.76 2.23-5 5-5h150c2.76 0 5 2.24 5 5v110c0 2.76-2.24 5-5 5h-150c-2.77 0-5-2.24-5-5z" stroke="#666" stroke-width="2" fill="#fff"/><use xlink:href="#w" transform="matrix(1,0,0,1,1496.6759268839035,511.82120430872305) translate(47.025 58.6)"/><path d="M1311.68 326.82h84.5c2.76 0 5 2.24 5 5v230c0 2.76 2.23 5 5 5h61.4" stroke="#3aa6dd" stroke-width="5" fill="none"/><path d="M1311.68 329.32h-1v-5h1zM1482.6 566.82l-14.28 4.64v-9.27z" fill="#3aa6dd"/><path d="M1490.68 566.82l-24.86 8.08v-16.16zm-19.86 1.2l3.68-1.2-3.68-1.2z" fill="#3aa6dd"/><path d="M1310.68 806.82h85c2.76 0 5-2.24 5-5v-230c0-2.76 2.23-5 5-5h61.9" stroke="#3aa6dd" stroke-width="5" fill="none"/><path d="M1310.68 809.32h-1v-5h1zM1482.6 566.82l-14.28 4.64v-9.27z" fill="#3aa6dd"/><path d="M1490.68 566.82l-24.86 8.08v-16.16zm-19.86 1.2l3.68-1.2-3.68-1.2z" fill="#3aa6dd"/><use xlink:href="#u" transform="matrix(1,0,0,1,1349.056754693216,538.821204308723) translate(0.005000000000002558 16)"/><path d="M1851.68 511.82c0-2.76 2.23-5 5-5h150c2.76 0 5 2.24 5 5v110c0 2.76-2.24 5-5 5h-150c-2.77 0-5-2.24-5-5z" stroke="#666" stroke-width="2" fill="#fff"/><use xlink:href="#x" transform="matrix(1,0,0,1,1856.6759268839032,511.82120430872305) translate(37.05 58.6)"/><path d="M1652.68 566.82h174.9" stroke="#b391b5" stroke-width="5" fill="none"/><path d="M1652.68 569.32h-1v-5h1zM1842.6 566.82l-14.28 4.64v-9.27z" fill="#b391b5"/><path d="M1850.68 566.82l-24.86 8.08v-16.16zm-19.86 1.2l3.68-1.2-3.68-1.2z" fill="#b391b5"/><use xlink:href="#y" transform="matrix(1,0,0,1,1692.3148157727921,517.2212043087231) translate(0.005000000000002558 16)"/><use xlink:href="#z" transform="matrix(1,0,0,1,1692.3148157727921,517.2212043087231) translate(6.116111111111124 38.4)"/><use xlink:href="#A" transform="matrix(1,0,0,1,1692.3148157727921,517.2212043087231) translate(11.116111111111124 38.4)"/><use xlink:href="#B" transform="matrix(1,0,0,1,1692.3148157727921,517.2212043087231) translate(29.066111111111127 38.4)"/><path d="M2012.68 566.82h343.28" stroke="#b391b5" stroke-width="5" fill="none"/><path d="M2012.68 569.32h-1v-5h1zM2370.96 566.82l-14.26 4.64v-9.27z" fill="#b391b5"/><path d="M2379.05 566.82l-24.85 8.08v-16.16zm-19.85 1.2l3.67-1.2-3.67-1.2z" fill="#b391b5"/><use xlink:href="#C" transform="matrix(1,0,0,1,2034.763600026327,517.2212043087113) translate(0.0049999999999954525 16)"/><use xlink:href="#D" transform="matrix(1,0,0,1,2034.763600026327,517.2212043087113) translate(84.855 16)"/><use xlink:href="#E" transform="matrix(1,0,0,1,2034.763600026327,517.2212043087113) translate(51.04111111111112 38.4)"/><use xlink:href="#F" transform="matrix(1,0,0,1,2034.763600026327,517.2212043087113) translate(68.99111111111112 38.4)"/><path d="M2380.05 511.82c0-2.76 2.24-5 5-5h150c2.76 0 5 2.24 5 5v110c0 2.76-2.24 5-5 5h-150c-2.76 0-5-2.24-5-5z" stroke="#666" stroke-width="2" fill="#fff"/><use xlink:href="#G" transform="matrix(1,0,0,1,2385.0520387009296,511.82120430872305) translate(22.624999999999993 58.6)"/><use xlink:href="#H" transform="matrix(1,0,0,1,2385.0520387009296,511.82120430872305) translate(65.525 58.6)"/><path d="M2380.05 271.82c0-2.76 2.24-5 5-5h150c2.76 0 5 2.24 5 5v110c0 2.76-2.24 5-5 5h-150c-2.76 0-5-2.24-5-5z" stroke="#666" stroke-width="2" fill="#fff"/><use xlink:href="#G" transform="matrix(1,0,0,1,2385.0520387009296,271.821204308723) translate(22.624999999999993 58.6)"/><use xlink:href="#H" transform="matrix(1,0,0,1,2385.0520387009296,271.821204308723) translate(65.525 58.6)"/><path d="M2012.68 566.82h178.18c2.77 0 5 2.24 5 5v230c0 2.76 2.24 5 5 5h155.1" stroke="#b391b5" stroke-width="5" fill="none"/><path d="M2012.68 569.32h-1v-5h1zM2370.96 806.82l-14.26 4.64v-9.27z" fill="#b391b5"/><path d="M2379.05 806.82l-24.85 8.08v-16.16zm-19.85 1.2l3.67-1.2-3.67-1.2z" fill="#b391b5"/><path d="M2380.05 751.82c0-2.76 2.24-5 5-5h150c2.76 0 5 2.24 5 5v110c0 2.76-2.24 5-5 5h-150c-2.76 0-5-2.24-5-5z" stroke="#666" stroke-width="2" fill="#fff"/><use xlink:href="#G" transform="matrix(1,0,0,1,2385.0520387009296,751.8212043087233) translate(22.624999999999993 58.6)"/><use xlink:href="#H" transform="matrix(1,0,0,1,2385.0520387009296,751.8212043087233) translate(65.525 58.6)"/><path d="M2780.05 271.82c0-2.76 2.24-5 5-5h150c2.76 0 5 2.24 5 5v110c0 2.76-2.24 5-5 5h-150c-2.76 0-5-2.24-5-5z" stroke="#666" stroke-width="2" fill="#fff"/><use xlink:href="#I" transform="matrix(1,0,0,1,2785.0520387009296,271.821204308723) translate(55.55 58.6)"/><path d="M2587.85 329.32h-46.8v-5h46.8zm168.1 0h-23.7v-5h23.7z" fill="#c92d39"/><path d="M2541.05 329.32h-1v-5h1zM2770.96 326.82l-14.26 4.64v-9.27z" fill="#c92d39"/><path d="M2779.05 326.82l-24.85 8.08v-16.16zm-19.85 1.2l3.67-1.2-3.67-1.2z" fill="#c92d39"/><use xlink:href="#J" transform="matrix(1,0,0,1,2587.85203870093,316.021204308723) translate(0.0049999999999954525 14.4)"/><use xlink:href="#K" transform="matrix(1,0,0,1,2587.85203870093,316.021204308723) translate(42.905 14.4)"/><use xlink:href="#B" transform="matrix(1,0,0,1,2587.85203870093,316.021204308723) translate(60.855000000000004 14.4)"/><path d="M2779.05 511.82c0-2.76 2.24-5 5-5h150c2.76 0 5 2.24 5 5v110c0 2.76-2.24 5-5 5h-150c-2.76 0-5-2.24-5-5z" stroke="#666" stroke-width="2" fill="#fff"/><use xlink:href="#I" transform="matrix(1,0,0,1,2784.0520387009296,511.82120430872305) translate(55.55 58.6)"/><path d="M2587.35 569.32h-46.3v-5h46.3zm167.6 0h-23.2v-5h23.2z" fill="#c92d39"/><path d="M2541.05 569.32h-1v-5h1zM2769.96 566.82l-14.26 4.64v-9.27z" fill="#c92d39"/><path d="M2778.05 566.82l-24.85 8.08v-16.16zm-19.85 1.2l3.67-1.2-3.67-1.2z" fill="#c92d39"/><g><use xlink:href="#J" transform="matrix(1,0,0,1,2587.35203870093,556.0212043087231) translate(0.0049999999999954525 14.4)"/><use xlink:href="#K" transform="matrix(1,0,0,1,2587.35203870093,556.0212043087231) translate(42.905 14.4)"/><use xlink:href="#B" transform="matrix(1,0,0,1,2587.35203870093,556.0212043087231) translate(60.855000000000004 14.4)"/></g><path d="M2778.05 751.82c0-2.76 2.24-5 5-5h150c2.76 0 5 2.24 5 5v110c0 2.76-2.24 5-5 5h-150c-2.76 0-5-2.24-5-5z" stroke="#666" stroke-width="2" fill="#fff"/><g><use xlink:href="#I" transform="matrix(1,0,0,1,2783.0520387009296,751.8212043087233) translate(55.55 58.6)"/></g><path d="M2586.85 809.32h-45.8v-5h45.8zm167.1 0h-22.7v-5h22.7z" fill="#c92d39"/><path d="M2541.05 809.32h-1v-5h1zM2768.96 806.82l-14.26 4.64v-9.27z" fill="#c92d39"/><path d="M2777.05 806.82l-24.85 8.08v-16.16zm-19.85 1.2l3.67-1.2-3.67-1.2z" fill="#c92d39"/><g><use xlink:href="#J" transform="matrix(1,0,0,1,2586.85203870093,796.0212043087233) translate(0.0049999999999954525 14.4)"/><use xlink:href="#K" transform="matrix(1,0,0,1,2586.85203870093,796.0212043087233) translate(42.905 14.4)"/><use xlink:href="#B" transform="matrix(1,0,0,1,2586.85203870093,796.0212043087233) translate(60.855000000000004 14.4)"/></g><path d="M2300.05 196.82v-35c0-2.76 2.24-5 5-5h690c2.76 0 5 2.24 5 5v35" fill="#fff"/><path d="M2305.05 196.82c-2.76 0-5-2.24-5-5v-30c0-2.76 2.24-5 5-5h690c2.76 0 5 2.24 5 5v30c0 2.76-2.24 5-5 5z" fill="none"/><path d="M2397.05 156.82h92m46 0h92m46 0h92m46 0h92m46 0h46l2.95.97 1.8 2.44.25 1.58v30l-.96 2.95-2.47 1.8-1.58.25h-46m-46 0h-92m-46 0h-92m-46 0h-92m-46 0h-92m-46 0h-46l-2.95-.96-1.8-2.46-.25-1.58v-30l.97-2.95 2.45-1.8 1.58-.25h46" stroke="#666" stroke-width="5" fill="none"/><path d="M2300.05 196.82v785c0 2.76 2.24 5 5 5h690c2.76 0 5-2.24 5-5v-785" fill="none"/><path d="M2300.05 196.82v52.33m0 52.34v104.65m0 52.34v104.65m0 52.34v104.65m0 52.34v104.65m0 52.34v52.32l.97 2.95 2.45 1.8 1.58.25h46m46 0h92m46 0h92m46 0h92m46 0h92m46 0h46l2.95-.96 1.8-2.46.25-1.58V929.5m0-52.35V772.5m0-52.35V615.5m0-52.35V458.5m0-52.35V301.5m0-52.35v-52.33" stroke="#666" stroke-width="5" fill="none"/><path d="M2300.05 196.82h700" fill="none"/><path d="M2300.05 196.82h46.67m46.67 0h93.32m46.67 0h93.32m46.67 0h93.32m46.67 0h93.32m46.67 0h46.65" stroke="#666" stroke-width="5" fill="none"/><g><use xlink:href="#L" transform="matrix(1,0,0,1,2300.0520387009296,156.82120430872328) translate(306.075 23.6)"/></g><path d="M2012.68 566.82h178.18c2.77 0 5-2.24 5-5v-230c0-2.76 2.24-5 5-5h155.1" stroke="#b391b5" stroke-width="5" fill="none"/><path d="M2370.96 326.82l-14.26 4.64v-9.27z" fill="#b391b5"/><path d="M2379.05 326.82l-24.85 8.08v-16.16zm-19.85 1.2l3.67-1.2-3.67-1.2z" fill="#b391b5"/><defs><path fill="#333" d="M24 0v-248h52v208h133V0H24" id="M"/><path fill="#333" d="M25-224v-37h50v37H25zM25 0v-190h50V0H25" id="N"/><path fill="#333" d="M137-138c1-29-70-34-71-4 15 46 118 7 119 86 1 83-164 76-172 9l43-7c4 19 20 25 44 25 33 8 57-30 24-41C81-84 22-81 20-136c-2-80 154-74 161-7" id="O"/><path fill="#333" d="M115-3C79 11 28 4 28-45v-112H4v-33h27l15-45h31v45h36v33H77v99c-1 23 16 31 38 25v30" id="P"/><g id="a"><use transform="matrix(0.05,0,0,0.05,0,0)" xlink:href="#M"/><use transform="matrix(0.05,0,0,0.05,10.950000000000001,0)" xlink:href="#N"/><use transform="matrix(0.05,0,0,0.05,15.950000000000001,0)" xlink:href="#O"/><use transform="matrix(0.05,0,0,0.05,25.950000000000003,0)" xlink:href="#P"/></g><path fill="#333" d="M110-194c64 0 96 36 96 99 0 64-35 99-97 99-61 0-95-36-95-99 0-62 34-99 96-99zm-1 164c35 0 45-28 45-65 0-40-10-65-43-65-34 0-45 26-45 65 0 36 10 65 43 65" id="Q"/><path fill="#333" d="M121-226c-27-7-43 5-38 36h38v33H83V0H34v-157H6v-33h28c-9-59 32-81 87-68v32" id="R"/><g id="b"><use transform="matrix(0.05,0,0,0.05,0,0)" xlink:href="#Q"/><use transform="matrix(0.05,0,0,0.05,10.950000000000001,0)" xlink:href="#R"/></g><path fill="#333" d="M25 0v-261h50V0H25" id="S"/><path fill="#333" d="M185-48c-13 30-37 53-82 52C43 2 14-33 14-96s30-98 90-98c62 0 83 45 84 108H66c0 31 8 55 39 56 18 0 30-7 34-22zm-45-69c5-46-57-63-70-21-2 6-4 13-4 21h74" id="T"/><g id="c"><use transform="matrix(0.05,0,0,0.05,0,0)" xlink:href="#R"/><use transform="matrix(0.05,0,0,0.05,5.95,0)" xlink:href="#N"/><use transform="matrix(0.05,0,0,0.05,10.95,0)" xlink:href="#S"/><use transform="matrix(0.05,0,0,0.05,15.949999999999998,0)" xlink:href="#T"/><use transform="matrix(0.05,0,0,0.05,25.950000000000003,0)" xlink:href="#O"/></g><path fill="#333" d="M135-194c87-1 58 113 63 194h-50c-7-57 23-157-34-157-59 0-34 97-39 157H25l-1-190h47c2 12-1 28 3 38 12-26 28-41 61-42" id="U"/><path fill="#333" d="M133-34C117-15 103 5 69 4 32 3 11-16 11-54c-1-60 55-63 116-61 1-26-3-47-28-47-18 1-26 9-28 27l-52-2c7-38 36-58 82-57s74 22 75 68l1 82c-1 14 12 18 25 15v27c-30 8-71 5-69-32zm-48 3c29 0 43-24 42-57-32 0-66-3-65 30 0 17 8 27 23 27" id="V"/><path fill="#333" d="M220-157c-53 9-28 100-34 157h-49v-107c1-27-5-49-29-50C55-147 81-57 75 0H25l-1-190h47c2 12-1 28 3 38 10-53 101-56 108 0 13-22 24-43 59-42 82 1 51 116 57 194h-49v-107c-1-25-5-48-29-50" id="W"/><g id="d"><use transform="matrix(0.05,0,0,0.05,0,0)" xlink:href="#U"/><use transform="matrix(0.05,0,0,0.05,10.950000000000001,0)" xlink:href="#V"/><use transform="matrix(0.05,0,0,0.05,20.950000000000003,0)" xlink:href="#W"/><use transform="matrix(0.05,0,0,0.05,36.95,0)" xlink:href="#T"/><use transform="matrix(0.05,0,0,0.05,46.95,0)" xlink:href="#O"/></g><path fill="#999" d="M169-182c-1-43-94-46-97-3 18 66 151 10 154 114 3 95-165 93-204 36-6-8-10-19-12-30l50-8c3 46 112 56 116 5-17-69-150-10-154-114-4-87 153-88 188-35 5 8 8 18 10 28" id="X"/><path fill="#999" d="M140-251c80 0 125 45 125 126S219 4 139 4C58 4 15-44 15-125s44-126 125-126zm-1 214c52 0 73-35 73-88 0-50-21-86-72-86-52 0-73 35-73 86s22 88 72 88" id="Y"/><path fill="#999" d="M240-174c0 40-23 61-54 70L253 0h-59l-57-94H76V0H24v-248c93 4 217-23 216 74zM76-134c48-2 112 12 112-38 0-48-66-32-112-35v73" id="Z"/><path fill="#999" d="M182-130c37 4 62 22 62 59C244 23 116-4 24 0v-248c84 5 203-23 205 63 0 31-19 50-47 55zM76-148c40-3 101 13 101-30 0-44-60-28-101-31v61zm0 110c48-3 116 14 116-37 0-48-69-32-116-35v72" id="aa"/><path fill="#999" d="M24 0v-248h195v40H76v63h132v40H76v65h150V0H24" id="ab"/><path fill="#999" d="M136-208V0H84v-208H4v-40h212v40h-80" id="ac"/><g id="e"><use transform="matrix(0.09876543209876544,0,0,0.09876543209876544,0,0)" xlink:href="#X"/><use transform="matrix(0.09876543209876544,0,0,0.09876543209876544,23.703703703703706,0)" xlink:href="#Y"/><use transform="matrix(0.09876543209876544,0,0,0.09876543209876544,51.35802469135803,0)" xlink:href="#Z"/><use transform="matrix(0.09876543209876544,0,0,0.09876543209876544,76.93827160493828,0)" xlink:href="#aa"/><use transform="matrix(0.09876543209876544,0,0,0.09876543209876544,102.51851851851853,0)" xlink:href="#ab"/><use transform="matrix(0.09876543209876544,0,0,0.09876543209876544,126.22222222222223,0)" xlink:href="#ac"/></g><path fill="#999" d="M24-248c120-7 223 5 221 122C244-46 201 0 124 0H24v-248zM76-40c74 7 117-18 117-86 0-67-45-88-117-82v168" id="ad"/><path fill="#999" d="M24 0v-248h52V0H24" id="ae"/><path fill="#999" d="M199 0l-22-63H83L61 0H9l90-248h61L250 0h-51zm-33-102l-36-108c-10 38-24 72-36 108h72" id="af"/><path fill="#999" d="M67-125c0 54 23 88 75 88 28 0 53-7 68-21v-34h-60v-39h108v91C232-14 192 4 140 4 58 4 20-42 15-125 8-236 126-280 215-234c19 10 29 26 37 47l-47 15c-11-23-29-39-63-39-53 1-75 33-75 86" id="ag"/><path fill="#999" d="M230 0l2-204L168 0h-37L68-204 70 0H24v-248h70l56 185 57-185h69V0h-46" id="ah"/><g id="f"><use transform="matrix(0.09876543209876544,0,0,0.09876543209876544,0,0)" xlink:href="#ad"/><use transform="matrix(0.09876543209876544,0,0,0.09876543209876544,25.58024691358025,0)" xlink:href="#ae"/><use transform="matrix(0.09876543209876544,0,0,0.09876543209876544,35.4567901234568,0)" xlink:href="#af"/><use transform="matrix(0.09876543209876544,0,0,0.09876543209876544,61.03703703703705,0)" xlink:href="#ag"/><use transform="matrix(0.09876543209876544,0,0,0.09876543209876544,88.69135802469137,0)" xlink:href="#Z"/><use transform="matrix(0.09876543209876544,0,0,0.09876543209876544,114.27160493827161,0)" xlink:href="#af"/><use transform="matrix(0.09876543209876544,0,0,0.09876543209876544,139.85185185185188,0)" xlink:href="#ah"/></g><path fill="#999" d="M76-208v77h127v40H76V0H24v-248h183v40H76" id="ai"/><g id="g"><use transform="matrix(0.09876543209876544,0,0,0.09876543209876544,0,0)" xlink:href="#ai"/><use transform="matrix(0.09876543209876544,0,0,0.09876543209876544,21.62962962962963,0)" xlink:href="#Y"/><use transform="matrix(0.09876543209876544,0,0,0.09876543209876544,49.28395061728395,0)" xlink:href="#Z"/></g><path fill="#999" d="M24 0v-248h52v208h133V0H24" id="aj"/><path fill="#999" d="M195 0l-88-114-31 24V0H24v-248h52v113l112-113h60L142-143 257 0h-62" id="ak"/><g id="h"><use transform="matrix(0.09876543209876544,0,0,0.09876543209876544,0,0)" xlink:href="#ac"/><use transform="matrix(0.09876543209876544,0,0,0.09876543209876544,18.962962962962962,0)" xlink:href="#af"/><use transform="matrix(0.09876543209876544,0,0,0.09876543209876544,44.543209876543216,0)" xlink:href="#aj"/><use transform="matrix(0.09876543209876544,0,0,0.09876543209876544,66.17283950617285,0)" xlink:href="#ak"/></g><path fill="#999" d="M30-248c118-7 216 8 213 122C240-48 200 0 122 0H30v-248zM63-27c89 8 146-16 146-99s-60-101-146-95v194" id="al"/><path fill="#999" d="M210-169c-67 3-38 105-44 169h-31v-121c0-29-5-50-35-48C34-165 62-65 56 0H25l-1-190h30c1 10-1 24 2 32 10-44 99-50 107 0 11-21 27-35 58-36 85-2 47 119 55 194h-31v-121c0-29-5-49-35-48" id="am"/><path fill="#999" d="M24-231v-30h32v30H24zM24 0v-190h32V0H24" id="an"/><path fill="#999" d="M59-47c-2 24 18 29 38 22v24C64 9 27 4 27-40v-127H5v-23h24l9-43h21v43h35v23H59v120" id="ao"/><path fill="#999" d="M114-163C36-179 61-72 57 0H25l-1-190h30c1 12-1 29 2 39 6-27 23-49 58-41v29" id="ap"/><path fill="#999" d="M179-190L93 31C79 59 56 82 12 73V49c39 6 53-20 64-50L1-190h34L92-34l54-156h33" id="aq"/><g id="i"><use transform="matrix(0.06172839506172778,0,0,0.06172839506172778,0,0)" xlink:href="#al"/><use transform="matrix(0.06172839506172778,0,0,0.06172839506172778,15.987654320987495,0)" xlink:href="#am"/><use transform="matrix(0.06172839506172778,0,0,0.06172839506172778,34.4444444444441,0)" xlink:href="#an"/><use transform="matrix(0.06172839506172778,0,0,0.06172839506172778,39.3209876543206,0)" xlink:href="#ao"/><use transform="matrix(0.06172839506172778,0,0,0.06172839506172778,45.493827160493375,0)" xlink:href="#ap"/><use transform="matrix(0.06172839506172778,0,0,0.06172839506172778,52.83950617283898,0)" xlink:href="#aq"/></g><path fill="#999" d="M30-248c87 1 191-15 191 75 0 78-77 80-158 76V0H30v-248zm33 125c57 0 124 11 124-50 0-59-68-47-124-48v98" id="ar"/><path fill="#999" d="M100-194c63 0 86 42 84 106H49c0 40 14 67 53 68 26 1 43-12 49-29l28 8c-11 28-37 45-77 45C44 4 14-33 15-96c1-61 26-98 85-98zm52 81c6-60-76-77-97-28-3 7-6 17-6 28h103" id="as"/><path fill="#999" d="M141-36C126-15 110 5 73 4 37 3 15-17 15-53c-1-64 63-63 125-63 3-35-9-54-41-54-24 1-41 7-42 31l-33-3c5-37 33-52 76-52 45 0 72 20 72 64v82c-1 20 7 32 28 27v20c-31 9-61-2-59-35zM48-53c0 20 12 33 32 33 41-3 63-29 60-74-43 2-92-5-92 41" id="at"/><path fill="#999" d="M135-143c-3-34-86-38-87 0 15 53 115 12 119 90S17 21 10-45l28-5c4 36 97 45 98 0-10-56-113-15-118-90-4-57 82-63 122-42 12 7 21 19 24 35" id="au"/><path fill="#999" d="M106-169C34-169 62-67 57 0H25v-261h32l-1 103c12-21 28-36 61-36 89 0 53 116 60 194h-32v-121c2-32-8-49-39-48" id="av"/><path fill="#999" d="M143 0L79-87 56-68V0H24v-261h32v163l83-92h37l-77 82L181 0h-38" id="aw"/><path fill="#999" d="M100-194c62-1 85 37 85 99 1 63-27 99-86 99S16-35 15-95c0-66 28-99 85-99zM99-20c44 1 53-31 53-75 0-43-8-75-51-75s-53 32-53 75 10 74 51 75" id="ax"/><g id="j"><use transform="matrix(0.06172839506172778,0,0,0.06172839506172778,0,0)" xlink:href="#ar"/><use transform="matrix(0.06172839506172778,0,0,0.06172839506172778,14.814814814814667,0)" xlink:href="#as"/><use transform="matrix(0.06172839506172778,0,0,0.06172839506172778,27.160493827160224,0)" xlink:href="#ao"/><use transform="matrix(0.06172839506172778,0,0,0.06172839506172778,33.333333333333,0)" xlink:href="#ap"/><use transform="matrix(0.06172839506172778,0,0,0.06172839506172778,40.67901234567861,0)" xlink:href="#at"/><use transform="matrix(0.06172839506172778,0,0,0.06172839506172778,53.024691358024164,0)" xlink:href="#au"/><use transform="matrix(0.06172839506172778,0,0,0.06172839506172778,64.13580246913517,0)" xlink:href="#av"/><use transform="matrix(0.06172839506172778,0,0,0.06172839506172778,76.48148148148073,0)" xlink:href="#aw"/><use transform="matrix(0.06172839506172778,0,0,0.06172839506172778,87.59259259259173,0)" xlink:href="#ax"/></g><path fill="#999" d="M32 76v-337h29V76H32" id="ay"/><use transform="matrix(0.06172839506172778,0,0,0.06172839506172778,0,0)" xlink:href="#ay" id="k"/><path fill="#999" d="M185-189c-5-48-123-54-124 2 14 75 158 14 163 119 3 78-121 87-175 55-17-10-28-26-33-46l33-7c5 56 141 63 141-1 0-78-155-14-162-118-5-82 145-84 179-34 5 7 8 16 11 25" id="az"/><path fill="#999" d="M115-194c55 1 70 41 70 98S169 2 115 4C84 4 66-9 55-30l1 105H24l-1-265h31l2 30c10-21 28-34 59-34zm-8 174c40 0 45-34 45-75s-6-73-45-74c-42 0-51 32-51 76 0 43 10 73 51 73" id="aA"/><path fill="#999" d="M115-194c53 0 69 39 70 98 0 66-23 100-70 100C84 3 66-7 56-30L54 0H23l1-261h32v101c10-23 28-34 59-34zm-8 174c40 0 45-34 45-75 0-40-5-75-45-74-42 0-51 32-51 76 0 43 10 73 51 73" id="aB"/><g id="l"><use transform="matrix(0.06172839506172778,0,0,0.06172839506172778,0,0)" xlink:href="#az"/><use transform="matrix(0.06172839506172778,0,0,0.06172839506172778,14.814814814814667,0)" xlink:href="#as"/><use transform="matrix(0.06172839506172778,0,0,0.06172839506172778,27.160493827160224,0)" xlink:href="#aA"/><use transform="matrix(0.06172839506172778,0,0,0.06172839506172778,39.50617283950578,0)" xlink:href="#ao"/><use transform="matrix(0.06172839506172778,0,0,0.06172839506172778,45.67901234567856,0)" xlink:href="#as"/><use transform="matrix(0.06172839506172778,0,0,0.06172839506172778,58.024691358024114,0)" xlink:href="#am"/><use transform="matrix(0.06172839506172778,0,0,0.06172839506172778,76.48148148148073,0)" xlink:href="#aB"/><use transform="matrix(0.06172839506172778,0,0,0.06172839506172778,88.82716049382628,0)" xlink:href="#as"/><use transform="matrix(0.06172839506172778,0,0,0.06172839506172778,101.17283950617184,0)" xlink:href="#ap"/></g><path fill="#999" d="M27 0v-27h64v-190l-56 39v-29l58-41h29v221h61V0H27" id="aC"/><path fill="#999" d="M134-131c28 9 52 24 51 62-1 50-34 73-85 73S17-19 16-69c0-36 21-54 49-61-75-25-45-126 34-121 46 3 78 18 79 63 0 33-17 51-44 57zm-34-11c31 1 46-15 46-44 0-28-17-43-47-42-29 0-46 13-45 42 1 28 16 44 46 44zm1 122c35 0 51-18 51-52 0-30-18-46-53-46-33 0-51 17-51 47 0 34 19 51 53 51" id="aD"/><path fill="#999" d="M68-38c1 34 0 65-14 84H32c9-13 17-26 17-46H33v-38h35" id="aE"/><g id="m"><use transform="matrix(0.06172839506172778,0,0,0.06172839506172778,0,0)" xlink:href="#aC"/><use transform="matrix(0.06172839506172778,0,0,0.06172839506172778,12.345679012345556,0)" xlink:href="#aD"/><use transform="matrix(0.06172839506172778,0,0,0.06172839506172778,24.691358024691112,0)" xlink:href="#aE"/></g><path fill="#999" d="M101-251c82-7 93 87 43 132L82-64C71-53 59-42 53-27h129V0H18c2-99 128-94 128-182 0-28-16-43-45-43s-46 15-49 41l-32-3c6-41 34-60 81-64" id="aF"/><path fill="#999" d="M101-251c68 0 85 55 85 127S166 4 100 4C33 4 14-52 14-124c0-73 17-127 87-127zm-1 229c47 0 54-49 54-102s-4-102-53-102c-51 0-55 48-55 102 0 53 5 102 54 102" id="aG"/><g id="n"><use transform="matrix(0.06172839506172778,0,0,0.06172839506172778,0,0)" xlink:href="#aF"/><use transform="matrix(0.06172839506172778,0,0,0.06172839506172778,12.345679012345556,0)" xlink:href="#aG"/><use transform="matrix(0.06172839506172778,0,0,0.06172839506172778,24.691358024691112,0)" xlink:href="#aC"/><use transform="matrix(0.06172839506172778,0,0,0.06172839506172778,37.03703703703667,0)" xlink:href="#aD"/></g><path fill="#333" d="M88-194c31-1 46 15 58 34l-1-101h50l1 261h-48c-2-10 0-23-3-31C134-8 116 4 84 4 32 4 16-41 15-95c0-56 19-97 73-99zm17 164c33 0 40-30 41-66 1-37-9-64-41-64s-38 30-39 65c0 43 13 65 39 65" id="aH"/><path fill="#333" d="M144 0l-44-69L55 0H2l70-98-66-92h53l41 62 40-62h54l-67 91 71 99h-54" id="aI"/><g id="o"><use transform="matrix(0.05,0,0,0.05,0,0)" xlink:href="#N"/><use transform="matrix(0.05,0,0,0.05,5,0)" xlink:href="#U"/><use transform="matrix(0.05,0,0,0.05,15.950000000000001,0)" xlink:href="#aH"/><use transform="matrix(0.05,0,0,0.05,26.900000000000002,0)" xlink:href="#T"/><use transform="matrix(0.05,0,0,0.05,36.900000000000006,0)" xlink:href="#aI"/></g><path fill="#333" d="M135-194c53 0 70 44 70 98 0 56-19 98-73 100-31 1-45-17-59-34 3 33 2 69 2 105H25l-1-265h48c2 10 0 23 3 31 11-24 29-35 60-35zM114-30c33 0 39-31 40-66 0-38-9-64-40-64-56 0-55 130 0 130" id="aJ"/><path fill="#333" d="M135-150c-39-12-60 13-60 57V0H25l-1-190h47c2 13-1 29 3 40 6-28 27-53 61-41v41" id="aK"/><g id="p"><use transform="matrix(0.05,0,0,0.05,0,0)" xlink:href="#aJ"/><use transform="matrix(0.05,0,0,0.05,10.950000000000001,0)" xlink:href="#V"/><use transform="matrix(0.05,0,0,0.05,20.950000000000003,0)" xlink:href="#aK"/><use transform="matrix(0.05,0,0,0.05,27.950000000000003,0)" xlink:href="#O"/><use transform="matrix(0.05,0,0,0.05,37.95,0)" xlink:href="#T"/><use transform="matrix(0.05,0,0,0.05,47.95,0)" xlink:href="#aK"/></g><path fill="#fff" d="M175 0L67-191c6 58 2 128 3 191H24v-248h59L193-55c-6-58-2-129-3-193h46V0h-61" id="aL"/><path fill="#fff" d="M110-194c64 0 96 36 96 99 0 64-35 99-97 99-61 0-95-36-95-99 0-62 34-99 96-99zm-1 164c35 0 45-28 45-65 0-40-10-65-43-65-34 0-45 26-45 65 0 36 10 65 43 65" id="aM"/><path fill="#fff" d="M88-194c31-1 46 15 58 34l-1-101h50l1 261h-48c-2-10 0-23-3-31C134-8 116 4 84 4 32 4 16-41 15-95c0-56 19-97 73-99zm17 164c33 0 40-30 41-66 1-37-9-64-41-64s-38 30-39 65c0 43 13 65 39 65" id="aN"/><path fill="#fff" d="M185-48c-13 30-37 53-82 52C43 2 14-33 14-96s30-98 90-98c62 0 83 45 84 108H66c0 31 8 55 39 56 18 0 30-7 34-22zm-45-69c5-46-57-63-70-21-2 6-4 13-4 21h74" id="aO"/><path fill="#fff" d="M137-138c1-29-70-34-71-4 15 46 118 7 119 86 1 83-164 76-172 9l43-7c4 19 20 25 44 25 33 8 57-30 24-41C81-84 22-81 20-136c-2-80 154-74 161-7" id="aP"/><g id="q"><use transform="matrix(0.05555555555555555,0,0,0.05555555555555555,0,0)" xlink:href="#aL"/><use transform="matrix(0.05555555555555555,0,0,0.05555555555555555,14.388888888888888,0)" xlink:href="#aM"/><use transform="matrix(0.05555555555555555,0,0,0.05555555555555555,26.555555555555554,0)" xlink:href="#aN"/><use transform="matrix(0.05555555555555555,0,0,0.05555555555555555,38.72222222222222,0)" xlink:href="#aO"/><use transform="matrix(0.05555555555555555,0,0,0.05555555555555555,49.83333333333333,0)" xlink:href="#aP"/></g><path fill="#333" d="M85 4C-2 5 27-109 22-190h50c7 57-23 150 33 157 60-5 35-97 40-157h50l1 190h-47c-2-12 1-28-3-38-12 25-28 42-61 42" id="aQ"/><path fill="#333" d="M195-6C206 82 75 100 31 46c-4-6-6-13-8-21l49-6c3 16 16 24 34 25 40 0 42-37 40-79-11 22-30 35-61 35-53 0-70-43-70-97 0-56 18-96 73-97 30 0 46 14 59 34l2-30h47zm-90-29c32 0 41-27 41-63 0-35-9-62-40-62-32 0-39 29-40 63 0 36 9 62 39 62" id="aR"/><g id="r"><use transform="matrix(0.05,0,0,0.05,0,0)" xlink:href="#aH"/><use transform="matrix(0.05,0,0,0.05,10.950000000000001,0)" xlink:href="#T"/><use transform="matrix(0.05,0,0,0.05,20.950000000000003,0)" xlink:href="#O"/><use transform="matrix(0.05,0,0,0.05,30.950000000000003,0)" xlink:href="#aQ"/><use transform="matrix(0.05,0,0,0.05,41.900000000000006,0)" xlink:href="#aR"/><use transform="matrix(0.05,0,0,0.05,52.85,0)" xlink:href="#V"/><use transform="matrix(0.05,0,0,0.05,62.85,0)" xlink:href="#aK"/></g><path fill="#333" d="M186 0v-106H76V0H24v-248h52v99h110v-99h50V0h-50" id="aS"/><g id="s"><use transform="matrix(0.05,0,0,0.05,0,0)" xlink:href="#aS"/><use transform="matrix(0.05,0,0,0.05,12.950000000000001,0)" xlink:href="#V"/><use transform="matrix(0.05,0,0,0.05,22.950000000000003,0)" xlink:href="#aK"/><use transform="matrix(0.05,0,0,0.05,29.950000000000003,0)" xlink:href="#aH"/></g><path fill="#333" d="M24-248c120-7 223 5 221 122C244-46 201 0 124 0H24v-248zM76-40c74 7 117-18 117-86 0-67-45-88-117-82v168" id="aT"/><path fill="#333" d="M147 0L96-86 75-71V0H25v-261h50v150l67-79h53l-66 74L201 0h-54" id="aU"/><g id="t"><use transform="matrix(0.05,0,0,0.05,0,0)" xlink:href="#aT"/><use transform="matrix(0.05,0,0,0.05,12.950000000000001,0)" xlink:href="#N"/><use transform="matrix(0.05,0,0,0.05,17.950000000000003,0)" xlink:href="#O"/><use transform="matrix(0.05,0,0,0.05,27.950000000000003,0)" xlink:href="#aU"/></g><path fill="#fff" d="M24 0v-248h195v40H76v63h132v40H76v65h150V0H24" id="aV"/><path fill="#fff" d="M144 0l-44-69L55 0H2l70-98-66-92h53l41 62 40-62h54l-67 91 71 99h-54" id="aW"/><path fill="#fff" d="M135-194c53 0 70 44 70 98 0 56-19 98-73 100-31 1-45-17-59-34 3 33 2 69 2 105H25l-1-265h48c2 10 0 23 3 31 11-24 29-35 60-35zM114-30c33 0 39-31 40-66 0-38-9-64-40-64-56 0-55 130 0 130" id="aX"/><path fill="#fff" d="M135-150c-39-12-60 13-60 57V0H25l-1-190h47c2 13-1 29 3 40 6-28 27-53 61-41v41" id="aY"/><path fill="#fff" d="M25-224v-37h50v37H25zM25 0v-190h50V0H25" id="aZ"/><path fill="#fff" d="M135-194c87-1 58 113 63 194h-50c-7-57 23-157-34-157-59 0-34 97-39 157H25l-1-190h47c2 12-1 28 3 38 12-26 28-41 61-42" id="ba"/><g id="u"><use transform="matrix(0.05555555555555555,0,0,0.05555555555555555,0,0)" xlink:href="#aV"/><use transform="matrix(0.05555555555555555,0,0,0.05555555555555555,13.333333333333332,0)" xlink:href="#aW"/><use transform="matrix(0.05555555555555555,0,0,0.05555555555555555,24.444444444444443,0)" xlink:href="#aX"/><use transform="matrix(0.05555555555555555,0,0,0.05555555555555555,36.61111111111111,0)" xlink:href="#aY"/><use transform="matrix(0.05555555555555555,0,0,0.05555555555555555,44.388888888888886,0)" xlink:href="#aO"/><use transform="matrix(0.05555555555555555,0,0,0.05555555555555555,55.5,0)" xlink:href="#aP"/><use transform="matrix(0.05555555555555555,0,0,0.05555555555555555,66.61111111111111,0)" xlink:href="#aP"/><use transform="matrix(0.05555555555555555,0,0,0.05555555555555555,77.72222222222223,0)" xlink:href="#aZ"/><use transform="matrix(0.05555555555555555,0,0,0.05555555555555555,83.27777777777779,0)" xlink:href="#aM"/><use transform="matrix(0.05555555555555555,0,0,0.05555555555555555,95.44444444444446,0)" xlink:href="#ba"/><use transform="matrix(0.05555555555555555,0,0,0.05555555555555555,107.61111111111113,0)" xlink:href="#aP"/></g><path fill="#333" d="M169-182c-1-43-94-46-97-3 18 66 151 10 154 114 3 95-165 93-204 36-6-8-10-19-12-30l50-8c3 46 112 56 116 5-17-69-150-10-154-114-4-87 153-88 188-35 5 8 8 18 10 28" id="bb"/><g id="v"><use transform="matrix(0.05,0,0,0.05,0,0)" xlink:href="#aT"/><use transform="matrix(0.05,0,0,0.05,12.950000000000001,0)" xlink:href="#bb"/><use transform="matrix(0.05,0,0,0.05,24.950000000000003,0)" xlink:href="#M"/></g><path fill="#333" d="M175 0L67-191c6 58 2 128 3 191H24v-248h59L193-55c-6-58-2-129-3-193h46V0h-61" id="bc"/><g id="w"><use transform="matrix(0.05,0,0,0.05,0,0)" xlink:href="#bc"/><use transform="matrix(0.05,0,0,0.05,12.950000000000001,0)" xlink:href="#V"/><use transform="matrix(0.05,0,0,0.05,22.950000000000003,0)" xlink:href="#W"/><use transform="matrix(0.05,0,0,0.05,38.95,0)" xlink:href="#T"/><use transform="matrix(0.05,0,0,0.05,48.95,0)" xlink:href="#aK"/></g><path fill="#333" d="M240-174c0 40-23 61-54 70L253 0h-59l-57-94H76V0H24v-248c93 4 217-23 216 74zM76-134c48-2 112 12 112-38 0-48-66-32-112-35v73" id="bd"/><path fill="#333" d="M128 0H69L1-190h53L99-40l48-150h52" id="be"/><g id="x"><use transform="matrix(0.05,0,0,0.05,0,0)" xlink:href="#bd"/><use transform="matrix(0.05,0,0,0.05,12.950000000000001,0)" xlink:href="#T"/><use transform="matrix(0.05,0,0,0.05,22.950000000000003,0)" xlink:href="#O"/><use transform="matrix(0.05,0,0,0.05,32.95,0)" xlink:href="#Q"/><use transform="matrix(0.05,0,0,0.05,43.900000000000006,0)" xlink:href="#S"/><use transform="matrix(0.05,0,0,0.05,48.900000000000006,0)" xlink:href="#be"/><use transform="matrix(0.05,0,0,0.05,58.900000000000006,0)" xlink:href="#T"/><use transform="matrix(0.05,0,0,0.05,68.9,0)" xlink:href="#aK"/></g><g id="y"><use transform="matrix(0.05555555555555555,0,0,0.05555555555555555,0,0)" xlink:href="#aV"/><use transform="matrix(0.05555555555555555,0,0,0.05555555555555555,13.333333333333332,0)" xlink:href="#aW"/><use transform="matrix(0.05555555555555555,0,0,0.05555555555555555,24.444444444444443,0)" xlink:href="#aX"/><use transform="matrix(0.05555555555555555,0,0,0.05555555555555555,36.61111111111111,0)" xlink:href="#aY"/><use transform="matrix(0.05555555555555555,0,0,0.05555555555555555,44.388888888888886,0)" xlink:href="#aO"/><use transform="matrix(0.05555555555555555,0,0,0.05555555555555555,55.5,0)" xlink:href="#aP"/><use transform="matrix(0.05555555555555555,0,0,0.05555555555555555,66.61111111111111,0)" xlink:href="#aP"/><use transform="matrix(0.05555555555555555,0,0,0.05555555555555555,77.72222222222223,0)" xlink:href="#aZ"/><use transform="matrix(0.05555555555555555,0,0,0.05555555555555555,83.27777777777779,0)" xlink:href="#aM"/><use transform="matrix(0.05555555555555555,0,0,0.05555555555555555,95.44444444444446,0)" xlink:href="#ba"/><use transform="matrix(0.05555555555555555,0,0,0.05555555555555555,107.61111111111113,0)" xlink:href="#aP"/></g><path fill="#fff" d="M168-19C124 19 11 11 16-68c3-43 29-60 59-75-25-44-12-111 53-106 37 3 64 15 64 52 0 43-40 52-69 68 12 22 27 41 43 59 14-19 21-38 28-64l37 13c-8 29-19 52-34 74 12 10 32 16 52 10v35c-28 11-65-2-81-17zm-58-139c19-9 43-14 43-39 0-14-10-22-25-22-34 0-33 41-18 61zM60-68c-3 40 55 47 79 25-18-20-34-42-48-67-18 8-30 20-31 42" id="bf"/><use transform="matrix(0.05,0,0,0.05,0,0)" xlink:href="#bf" id="A"/><path fill="#fff" d="M169-182c-1-43-94-46-97-3 18 66 151 10 154 114 3 95-165 93-204 36-6-8-10-19-12-30l50-8c3 46 112 56 116 5-17-69-150-10-154-114-4-87 153-88 188-35 5 8 8 18 10 28" id="bg"/><path fill="#fff" d="M123 10C108 53 80 86 19 72V37c35 8 53-11 59-39L3-190h52l48 148c12-52 28-100 44-148h51" id="bh"/><path fill="#fff" d="M220-157c-53 9-28 100-34 157h-49v-107c1-27-5-49-29-50C55-147 81-57 75 0H25l-1-190h47c2 12-1 28 3 38 10-53 101-56 108 0 13-22 24-43 59-42 82 1 51 116 57 194h-49v-107c-1-25-5-48-29-50" id="bi"/><path fill="#fff" d="M136-208V0H84v-208H4v-40h212v40h-80" id="bj"/><path fill="#fff" d="M133-34C117-15 103 5 69 4 32 3 11-16 11-54c-1-60 55-63 116-61 1-26-3-47-28-47-18 1-26 9-28 27l-52-2c7-38 36-58 82-57s74 22 75 68l1 82c-1 14 12 18 25 15v27c-30 8-71 5-69-32zm-48 3c29 0 43-24 42-57-32 0-66-3-65 30 0 17 8 27 23 27" id="bk"/><path fill="#fff" d="M135-194c52 0 70 43 70 98 0 56-19 99-73 100-30 1-46-15-58-35L72 0H24l1-261h50v104c11-23 29-37 60-37zM114-30c31 0 40-27 40-66 0-37-7-63-39-63s-41 28-41 65c0 36 8 64 40 64" id="bl"/><path fill="#fff" d="M25 0v-261h50V0H25" id="bm"/><g id="B"><use transform="matrix(0.05,0,0,0.05,0,0)" xlink:href="#bg"/><use transform="matrix(0.05,0,0,0.05,12,0)" xlink:href="#bh"/><use transform="matrix(0.05,0,0,0.05,22,0)" xlink:href="#bi"/><use transform="matrix(0.05,0,0,0.05,38,0)" xlink:href="#bj"/><use transform="matrix(0.05,0,0,0.05,47.6,0)" xlink:href="#bk"/><use transform="matrix(0.05,0,0,0.05,57.6,0)" xlink:href="#bl"/><use transform="matrix(0.05,0,0,0.05,68.55,0)" xlink:href="#bm"/><use transform="matrix(0.05,0,0,0.05,73.55,0)" xlink:href="#aO"/></g><path fill="#fff" d="M240-174c0 40-23 61-54 70L253 0h-59l-57-94H76V0H24v-248c93 4 217-23 216 74zM76-134c48-2 112 12 112-38 0-48-66-32-112-35v73" id="bn"/><path fill="#fff" d="M128 0H69L1-190h53L99-40l48-150h52" id="bo"/><g id="C"><use transform="matrix(0.05,0,0,0.05,0,0)" xlink:href="#bn"/><use transform="matrix(0.05,0,0,0.05,12.950000000000001,0)" xlink:href="#aO"/><use transform="matrix(0.05,0,0,0.05,22.950000000000003,0)" xlink:href="#aP"/><use transform="matrix(0.05,0,0,0.05,32.95,0)" xlink:href="#aM"/><use transform="matrix(0.05,0,0,0.05,43.900000000000006,0)" xlink:href="#bm"/><use transform="matrix(0.05,0,0,0.05,48.900000000000006,0)" xlink:href="#bo"/><use transform="matrix(0.05,0,0,0.05,58.900000000000006,0)" xlink:href="#aO"/><use transform="matrix(0.05,0,0,0.05,68.9,0)" xlink:href="#aN"/></g><g id="D"><use transform="matrix(0.05555555555555555,0,0,0.05555555555555555,0,0)" xlink:href="#aV"/><use transform="matrix(0.05555555555555555,0,0,0.05555555555555555,13.333333333333332,0)" xlink:href="#aW"/><use transform="matrix(0.05555555555555555,0,0,0.05555555555555555,24.444444444444443,0)" xlink:href="#aX"/><use transform="matrix(0.05555555555555555,0,0,0.05555555555555555,36.61111111111111,0)" xlink:href="#aY"/><use transform="matrix(0.05555555555555555,0,0,0.05555555555555555,44.388888888888886,0)" xlink:href="#aO"/><use transform="matrix(0.05555555555555555,0,0,0.05555555555555555,55.5,0)" xlink:href="#aP"/><use transform="matrix(0.05555555555555555,0,0,0.05555555555555555,66.61111111111111,0)" xlink:href="#aP"/><use transform="matrix(0.05555555555555555,0,0,0.05555555555555555,77.72222222222223,0)" xlink:href="#aZ"/><use transform="matrix(0.05555555555555555,0,0,0.05555555555555555,83.27777777777779,0)" xlink:href="#aM"/><use transform="matrix(0.05555555555555555,0,0,0.05555555555555555,95.44444444444446,0)" xlink:href="#ba"/><use transform="matrix(0.05555555555555555,0,0,0.05555555555555555,107.61111111111113,0)" xlink:href="#aP"/></g><use transform="matrix(0.05,0,0,0.05,0,0)" xlink:href="#bf" id="E"/><g id="F"><use transform="matrix(0.05,0,0,0.05,0,0)" xlink:href="#bg"/><use transform="matrix(0.05,0,0,0.05,12,0)" xlink:href="#bh"/><use transform="matrix(0.05,0,0,0.05,22,0)" xlink:href="#bi"/><use transform="matrix(0.05,0,0,0.05,38,0)" xlink:href="#bj"/><use transform="matrix(0.05,0,0,0.05,47.6,0)" xlink:href="#bk"/><use transform="matrix(0.05,0,0,0.05,57.6,0)" xlink:href="#bl"/><use transform="matrix(0.05,0,0,0.05,68.55,0)" xlink:href="#bm"/><use transform="matrix(0.05,0,0,0.05,73.55,0)" xlink:href="#aO"/></g><path fill="#333" d="M67-125c0 53 21 87 73 88 37 1 54-22 65-47l45 17C233-25 199 4 140 4 58 4 20-42 15-125 8-235 124-281 211-232c18 10 29 29 36 50l-46 12c-8-25-30-41-62-41-52 0-71 34-72 86" id="bp"/><path fill="#333" d="M76-208v77h127v40H76V0H24v-248h183v40H76" id="bq"/><path fill="#333" d="M67-125c0 54 23 88 75 88 28 0 53-7 68-21v-34h-60v-39h108v91C232-14 192 4 140 4 58 4 20-42 15-125 8-236 126-280 215-234c19 10 29 26 37 47l-47 15c-11-23-29-39-63-39-53 1-75 33-75 86" id="br"/><g id="G"><use transform="matrix(0.05,0,0,0.05,0,0)" xlink:href="#bp"/><use transform="matrix(0.05,0,0,0.05,12.950000000000001,0)" xlink:href="#bq"/><use transform="matrix(0.05,0,0,0.05,23.900000000000002,0)" xlink:href="#br"/></g><path fill="#333" d="M182-130c37 4 62 22 62 59C244 23 116-4 24 0v-248c84 5 203-23 205 63 0 31-19 50-47 55zM76-148c40-3 101 13 101-30 0-44-60-28-101-31v61zm0 110c48-3 116 14 116-37 0-48-69-32-116-35v72" id="bs"/><g id="H"><use transform="matrix(0.05,0,0,0.05,0,0)" xlink:href="#bs"/><use transform="matrix(0.05,0,0,0.05,12.950000000000001,0)" xlink:href="#aQ"/><use transform="matrix(0.05,0,0,0.05,23.900000000000002,0)" xlink:href="#N"/><use transform="matrix(0.05,0,0,0.05,28.900000000000002,0)" xlink:href="#S"/><use transform="matrix(0.05,0,0,0.05,33.900000000000006,0)" xlink:href="#aH"/><use transform="matrix(0.05,0,0,0.05,44.85000000000001,0)" xlink:href="#T"/><use transform="matrix(0.05,0,0,0.05,54.85,0)" xlink:href="#aK"/></g><path fill="#333" d="M24 0v-248h52V0H24" id="bt"/><g id="I"><use transform="matrix(0.05,0,0,0.05,0,0)" xlink:href="#bt"/><use transform="matrix(0.05,0,0,0.05,5,0)" xlink:href="#U"/><use transform="matrix(0.05,0,0,0.05,15.950000000000001,0)" xlink:href="#R"/><use transform="matrix(0.05,0,0,0.05,21.900000000000002,0)" xlink:href="#T"/><use transform="matrix(0.05,0,0,0.05,31.900000000000002,0)" xlink:href="#aK"/></g><path fill="#fff" d="M67-125c0 53 21 87 73 88 37 1 54-22 65-47l45 17C233-25 199 4 140 4 58 4 20-42 15-125 8-235 124-281 211-232c18 10 29 29 36 50l-46 12c-8-25-30-41-62-41-52 0-71 34-72 86" id="bu"/><path fill="#fff" d="M76-208v77h127v40H76V0H24v-248h183v40H76" id="bv"/><path fill="#fff" d="M67-125c0 54 23 88 75 88 28 0 53-7 68-21v-34h-60v-39h108v91C232-14 192 4 140 4 58 4 20-42 15-125 8-236 126-280 215-234c19 10 29 26 37 47l-47 15c-11-23-29-39-63-39-53 1-75 33-75 86" id="bw"/><g id="J"><use transform="matrix(0.05,0,0,0.05,0,0)" xlink:href="#bu"/><use transform="matrix(0.05,0,0,0.05,12.950000000000001,0)" xlink:href="#bv"/><use transform="matrix(0.05,0,0,0.05,23.900000000000002,0)" xlink:href="#bw"/></g><use transform="matrix(0.05,0,0,0.05,0,0)" xlink:href="#bf" id="K"/><path fill="#333" d="M123 10C108 53 80 86 19 72V37c35 8 53-11 59-39L3-190h52l48 148c12-52 28-100 44-148h51" id="bx"/><path fill="#333" d="M190-63c-7 42-38 67-86 67-59 0-84-38-90-98-12-110 154-137 174-36l-49 2c-2-19-15-32-35-32-30 0-35 28-38 64-6 74 65 87 74 30" id="by"/><path fill="#333" d="M114-157C55-157 80-60 75 0H25v-261h50l-1 109c12-26 28-41 61-42 86-1 58 113 63 194h-50c-7-57 23-157-34-157" id="bz"/><g id="L"><use transform="matrix(0.05,0,0,0.05,0,0)" xlink:href="#P"/><use transform="matrix(0.05,0,0,0.05,5.95,0)" xlink:href="#bx"/><use transform="matrix(0.05,0,0,0.05,15.949999999999998,0)" xlink:href="#aJ"/><use transform="matrix(0.05,0,0,0.05,26.899999999999995,0)" xlink:href="#T"/><use transform="matrix(0.05,0,0,0.05,36.9,0)" xlink:href="#by"/><use transform="matrix(0.05,0,0,0.05,46.9,0)" xlink:href="#bz"/><use transform="matrix(0.05,0,0,0.05,57.85,0)" xlink:href="#T"/><use transform="matrix(0.05,0,0,0.05,67.85,0)" xlink:href="#by"/><use transform="matrix(0.05,0,0,0.05,77.85,0)" xlink:href="#aU"/></g></defs></g></svg>